<svg width="74" height="73" viewBox="0 0 74 73" fill="none" xmlns="http://www.w3.org/2000/svg">
<path d="M37.4314 0.654419C30.2 0.654419 23.131 2.77046 17.1183 6.73497C11.1056 10.6995 6.41934 16.3344 3.65201 22.9271C0.884677 29.5198 0.160618 36.7743 1.57139 43.7731C2.98216 50.7719 6.4644 57.2007 11.5778 62.2466C16.6911 67.2924 23.2059 70.7287 30.2984 72.1209C37.3908 73.513 44.7423 72.7985 51.4232 70.0677C58.1042 67.3369 63.8144 62.7125 67.832 56.7792C71.8495 50.8459 73.9939 43.8702 73.9939 36.7343C73.9847 27.1681 70.1296 17.9963 63.2748 11.232C56.42 4.46766 47.1255 0.663491 37.4314 0.654419V0.654419ZM15.8515 43.6556C14.715 43.1345 13.7197 42.3552 12.9472 41.3815C12.1746 40.4077 11.6469 39.2672 11.407 38.0534C11.0035 36.6144 10.9124 35.1075 11.1398 33.6314C11.3672 32.1553 11.9079 30.7431 12.7265 29.4875C13.5251 28.1684 14.5833 27.0205 15.8386 26.1113C17.0939 25.2021 18.5209 24.5501 20.0355 24.1937C21.6149 23.7055 23.3239 23.8343 24.8098 24.5535C25.5109 24.9012 26.1234 25.4008 26.6014 26.0148C27.0794 26.6289 27.4106 27.3417 27.5702 28.0998C27.7835 28.9581 27.8131 29.8508 27.6571 30.721C27.5089 31.671 27.1274 32.5709 26.5459 33.3421L25.6779 34.627C25.4681 34.9535 25.1747 35.2195 24.8272 35.398L24.3411 35.0211C24.3411 34.7984 24.4626 34.4729 24.914 34.0788C25.4604 33.4526 25.7729 32.6605 25.7994 31.8345C25.9426 30.9234 25.9131 29.994 25.7126 29.0934C25.4011 27.799 24.6315 26.6569 23.5425 25.8726C23.0318 25.5041 22.4419 25.2568 21.8186 25.1498C21.1954 25.0428 20.5555 25.0791 19.9487 25.2559C18.9799 25.4965 18.0793 25.9517 17.3152 26.5869C16.5512 27.2222 15.9437 28.0207 15.539 28.9221C14.5898 30.9338 14.417 33.2181 15.0529 35.3466C15.5761 37.7789 16.9612 39.9475 18.9591 41.4627C19.8713 42.1226 20.9275 42.5624 22.0431 42.7469C23.1586 42.9313 24.3024 42.8553 25.3827 42.5249C27.5246 42.0662 29.3964 40.7917 30.5911 38.9786C31.1555 38.0826 31.5188 37.0778 31.6566 36.0316C31.7943 34.9855 31.7033 33.9224 31.3897 32.9139C30.6932 30.8885 29.7363 28.9597 28.5425 27.1747L25.4869 22.0351C25.0559 21.202 24.7071 20.33 24.4452 19.431C24.1614 18.2839 24.1566 17.0868 24.4312 15.9375C24.7058 14.7882 25.252 13.7193 26.0251 12.8181C27.7234 10.6125 30.1489 9.06129 32.8827 8.43232C34.7194 7.90039 36.6816 7.97255 38.473 8.6379C39.1947 8.90628 39.8416 9.33967 40.3607 9.90252C40.8797 10.4654 41.2562 11.1416 41.4591 11.8758C41.6418 12.6647 41.6381 13.4844 41.4485 14.2716C41.2588 15.0588 40.8882 15.7925 40.3654 16.4158C39.2666 17.9209 37.66 18.99 35.8341 19.431C35.1223 19.6195 34.7404 19.5509 34.6536 19.2426C34.5668 18.9342 34.8619 18.6429 35.5737 18.4545C36.1339 18.2821 36.6477 17.9878 37.0773 17.5935C37.507 17.1992 37.8415 16.7148 38.0564 16.176C38.6522 15.029 38.8004 13.7061 38.473 12.4583C38.3584 11.9022 38.1338 11.3739 37.812 10.9036C37.4903 10.4332 37.0778 10.0301 36.598 9.71721C36.1241 9.43208 35.5935 9.25085 35.0424 9.18582C34.4912 9.12079 33.9323 9.17348 33.4036 9.34031C32.8198 9.46143 32.2733 9.717 31.8087 10.0862C31.344 10.4554 30.9744 10.9277 30.73 11.4647C30.2141 12.6834 30.1526 14.043 30.5564 15.3022C30.7252 15.9544 30.9518 16.5908 31.2334 17.2039C31.613 17.9925 32.0481 18.7538 32.5355 19.4824L34.8619 23.1315C35.9954 24.7803 36.8568 26.5959 37.414 28.5109C37.885 30.0977 37.9459 31.7756 37.5911 33.3916C37.2363 35.0075 36.4771 36.5101 35.3827 37.7622C32.4616 40.8564 28.6405 42.9811 24.4452 43.844C21.6719 44.7477 18.6678 44.6812 15.9383 43.6556H15.8515ZM62.6397 27.483C61.6848 29.1962 56.98 30.3098 57.6571 28.9906C58.1622 27.9464 58.5972 26.8705 58.9591 25.7698C59.1062 25.208 59.1062 24.6185 58.9591 24.0566C58.5772 22.549 57.223 22.0865 54.9314 22.669C54.2057 22.8527 53.5017 23.1111 52.8307 23.4399C51.901 23.8799 51.0269 24.4261 50.2265 25.0674C48.9936 26.1735 47.9137 27.435 47.0147 28.8193L44.3237 32.7254L42.9001 35.3466L42.1536 37.3682V37.5223L41.6501 38.773L41.0598 40.6917L40.8168 42.2336V44.4436L41.0251 46.7736C41.1604 47.2704 41.4025 47.7326 41.735 48.1287C42.0676 48.5249 42.4827 48.8457 42.9522 49.0693C43.9665 49.6135 45.1551 49.7486 46.2682 49.4462C47.0947 49.203 47.8749 48.8268 48.5772 48.3326C49.3403 47.8411 50.045 47.2664 50.6779 46.6194L51.6675 45.1803L52.5529 43.4671C52.9182 42.675 53.22 41.8559 53.4557 41.0173C53.4557 40.8973 47.8654 41.4284 48.1084 40.3491C48.2473 39.818 48.3689 40.3491 48.5078 39.9208L55.6258 37.2996L56.8064 36.9741L57.605 36.7685C57.8228 36.6593 58.0492 36.5676 58.2821 36.4944C58.7342 36.3495 59.1704 36.1601 59.5841 35.9291L61.3203 35.0211C60.6945 38.3192 59.9006 41.5841 58.9418 44.8034C58.3033 46.8869 57.5498 48.9343 56.6848 50.9366C56.4494 51.4545 56.1827 51.9579 55.8862 52.4443C55.2612 53.6949 54.48 55.0654 53.5598 56.5731C52.4785 58.3354 51.0709 59.8813 49.4105 61.1301C48.1014 62.0689 46.7198 62.9051 45.2786 63.6314C44.13 64.2318 42.9194 64.7085 41.6675 65.0534C40.2517 65.4714 38.7429 65.4714 37.3272 65.0534C36.7875 64.8939 36.3005 64.5956 35.9161 64.1892C35.5317 63.7828 35.2638 63.2828 35.1397 62.7405C35.0496 62.3254 35.0478 61.8964 35.1345 61.4806C35.2212 61.0648 35.3944 60.6713 35.6432 60.3249C35.8745 59.9331 36.1824 59.5906 36.549 59.3171C36.9156 59.0436 37.3335 58.8446 37.7786 58.7317C38.2031 58.6528 38.6388 58.6528 39.0633 58.7317L39.7404 59.1771C39.9433 59.3362 40.0943 59.5507 40.1744 59.7939V59.7939L39.723 59.9138L39.3932 59.9994C39.1668 60.0468 38.9541 60.1438 38.7708 60.2832C38.5875 60.4225 38.4383 60.6007 38.3341 60.8046C38.2161 61.0112 38.1429 61.2396 38.119 61.4755C38.0951 61.7115 38.121 61.9497 38.1952 62.1752C38.2837 62.5032 38.4492 62.806 38.6785 63.059C38.9077 63.312 39.1942 63.5081 39.5147 63.6314C40.3447 63.9285 41.2541 63.9285 42.0841 63.6314C43.309 63.3161 44.4173 62.6623 45.2786 61.7469C45.1918 61.7469 45.1918 61.627 45.2786 61.4214C46.6753 59.6349 47.8416 57.684 48.7508 55.6137L50.3827 51.2279L51.7369 46.8079L50.2786 49.0521L49.289 50.3199C48.3458 51.4168 47.2532 52.3796 46.0425 53.1809C44.8699 53.938 43.5881 54.5156 42.2404 54.8941C41.4375 55.1316 40.5941 55.2055 39.7614 55.1112C38.9287 55.017 38.1242 54.7566 37.3966 54.3459C35.9282 53.3843 34.8951 51.898 34.5147 50.2C34.3372 49.4921 34.2268 48.7694 34.1848 48.0413C34.1513 47.2632 34.1861 46.4836 34.289 45.7114C34.4105 44.9062 34.5321 44.1353 34.6883 43.3986C34.7898 42.8193 34.929 42.2471 35.105 41.6854C35.4522 40.8117 38.5772 35.2781 39.2369 34.3358C39.9865 33.3016 40.8042 32.3173 41.6848 31.3891L44.6536 28.3054C45.5672 27.4191 46.5355 26.5895 47.5529 25.8212C48.3862 25.2216 49.4279 24.5363 50.6779 23.7997L53.664 22.3434C54.8435 21.9045 56.0496 21.5383 57.2751 21.247C60.8747 20.3219 62.9638 20.99 63.5425 23.2514C63.6817 23.9807 63.6736 24.7299 63.5187 25.4561C63.3638 26.1822 63.0651 26.8711 62.6397 27.483" fill="#A1151A"/>
</svg>
