<svg width="85" height="84" viewBox="0 0 85 84" fill="none" xmlns="http://www.w3.org/2000/svg">
<path d="M42.4305 83.8779C34.0308 83.8644 25.8234 81.3949 18.845 76.7814C11.8665 72.1679 6.42997 65.6172 3.22185 57.9567C0.0137405 50.2961 -0.822048 41.8693 0.820038 33.7403C2.46212 25.6113 6.50844 18.1448 12.448 12.2837C18.3875 6.42252 25.9539 2.42962 34.1916 0.809213C42.4294 -0.811196 50.969 0.0135591 58.732 3.17932C66.495 6.34509 73.1333 11.7099 77.8085 18.5962C82.4837 25.4825 84.9863 33.5815 85 41.8704C85.0046 47.3882 83.9066 52.8527 81.7689 57.9513C79.6312 63.0499 76.4957 67.6826 72.5419 71.5843C68.588 75.4859 63.8934 78.58 58.7266 80.6895C53.5597 82.7989 48.0221 83.8824 42.4305 83.8779ZM42.4305 2.72394C34.5666 2.72055 26.8783 5.01859 20.338 9.32742C13.7977 13.6362 8.69929 19.7623 5.68752 26.9307C2.67574 34.0991 1.88595 41.988 3.41802 49.5994C4.95009 57.2108 8.7352 64.2029 14.2946 69.6913C19.854 75.1797 26.938 78.9179 34.6506 80.4331C42.3631 81.9483 50.3578 81.1724 57.6235 78.2035C64.8891 75.2346 71.0993 70.2061 75.4687 63.7541C79.838 57.302 82.1701 49.7162 82.1701 41.9561C82.177 36.7995 81.1545 31.6922 79.1611 26.9256C77.1677 22.159 74.2424 17.8265 70.5523 14.1755C66.8621 10.5245 62.4793 7.62647 57.6542 5.64692C52.8291 3.66736 47.656 2.64503 42.4305 2.63828" fill="#D8B243"/>
</svg>
