<svg width="452" height="113" viewBox="0 0 452 113" fill="none" xmlns="http://www.w3.org/2000/svg">
<path d="M8.172 13V11.524H3.132V0.76H1.584V13H8.172ZM8.96709 8.608C8.96709 11.2 10.9651 13.18 13.5211 13.18C16.1131 13.18 18.0751 11.2 18.0751 8.608C18.0751 6.052 16.1131 4.054 13.5211 4.054C10.9651 4.054 8.96709 6.052 8.96709 8.608ZM10.5151 8.608C10.5151 6.898 11.8111 5.53 13.5211 5.53C15.2491 5.53 16.5451 6.898 16.5451 8.608C16.5451 10.336 15.2491 11.722 13.5211 11.722C11.8111 11.722 10.5151 10.336 10.5151 8.608ZM21.6761 4.234H20.1821V13H21.6761V7.78C21.7301 6.43 22.3601 5.53 23.6201 5.53C24.0161 5.53 24.3941 5.62 24.6821 5.746V4.144C24.4481 4.09 24.1781 4.054 23.9441 4.054C22.8281 4.054 22.0901 4.612 21.6761 5.422V4.234ZM34.049 9.166C34.085 8.986 34.121 8.626 34.121 8.356C34.121 5.962 32.411 4.054 29.891 4.054C27.389 4.054 25.517 6.052 25.517 8.608C25.517 11.272 27.443 13.18 29.981 13.18C31.331 13.18 32.483 12.748 33.239 12.262V10.714C32.501 11.29 31.295 11.812 30.089 11.812C28.433 11.812 27.209 10.714 27.029 9.166H34.049ZM29.891 5.35C31.421 5.35 32.645 6.394 32.663 7.978H27.029C27.137 6.502 28.325 5.35 29.891 5.35ZM37.5751 4.234H36.0811V13H37.5751V7.564C37.6291 6.25 38.4391 5.53 39.6091 5.53C40.7611 5.53 41.5891 6.286 41.5891 7.69V13H43.0831V7.69C43.0831 6.304 43.9291 5.53 45.0991 5.53C46.2691 5.53 47.0971 6.286 47.0971 7.69V13H48.5911V7.33C48.5911 5.314 47.2591 4.054 45.5131 4.054C44.1631 4.054 43.2271 4.756 42.8311 5.872C42.3631 4.702 41.3011 4.054 40.0051 4.054C38.8711 4.054 38.0431 4.594 37.5751 5.44V4.234ZM55.9081 13H57.4561V0.76H55.9081V13ZM61.9687 4.234H60.4747V16.69H61.9687V11.254C62.5987 12.424 63.7867 13.18 65.2807 13.18C67.8007 13.18 69.6367 11.2 69.6367 8.608C69.6367 6.052 67.8007 4.054 65.2987 4.054C63.7867 4.054 62.5987 4.828 61.9687 6.07V4.234ZM61.9687 8.608C61.9687 6.916 63.2827 5.53 65.0287 5.53C66.7567 5.53 68.0707 6.916 68.0707 8.608C68.0707 10.336 66.7567 11.704 65.0287 11.704C63.2827 11.704 61.9687 10.336 61.9687 8.608ZM76.3005 4.504C75.7965 4.252 75.0585 4.054 74.2845 4.054C72.3585 4.054 71.3145 5.098 71.3145 6.466C71.3145 7.294 71.6925 8.032 72.6105 8.572L74.2305 9.544C74.8965 9.94 75.1305 10.282 75.1305 10.732C75.1305 11.398 74.5905 11.866 73.6005 11.866C72.7005 11.866 71.8545 11.434 71.4045 11.038V12.658C71.9445 12.928 72.7725 13.18 73.6725 13.18C75.5265 13.18 76.6785 12.226 76.6785 10.732C76.6785 9.904 76.3365 9.148 75.2025 8.464L73.6545 7.546C73.1325 7.222 72.8805 6.97 72.8805 6.502C72.8805 5.872 73.3665 5.386 74.3025 5.386C75.0225 5.386 75.7425 5.674 76.3005 6.088V4.504ZM84.6315 13H86.1435V4.234H84.6315V9.49C84.5775 10.822 83.7675 11.722 82.4355 11.722C81.0495 11.722 80.2395 10.75 80.2395 9.364V4.234H78.7455V9.706C78.7455 11.722 80.0235 13.18 82.0215 13.18C83.2995 13.18 84.1815 12.568 84.6315 11.632V13ZM90.3348 4.234H88.8408V13H90.3348V7.564C90.3888 6.25 91.1988 5.53 92.3688 5.53C93.5208 5.53 94.3488 6.286 94.3488 7.69V13H95.8428V7.69C95.8428 6.304 96.6888 5.53 97.8588 5.53C99.0288 5.53 99.8568 6.286 99.8568 7.69V13H101.351V7.33C101.351 5.314 100.019 4.054 98.2728 4.054C96.9228 4.054 95.9868 4.756 95.5908 5.872C95.1228 4.702 94.0608 4.054 92.7648 4.054C91.6308 4.054 90.8028 4.594 90.3348 5.44V4.234ZM109.82 4.234H108.326V13H109.82V4.234ZM108.092 1.48C108.092 2.038 108.524 2.452 109.064 2.452C109.658 2.452 110.072 2.038 110.072 1.48C110.072 0.922 109.658 0.489999 109.064 0.489999C108.524 0.489999 108.092 0.922 108.092 1.48ZM117.032 4.504C116.528 4.252 115.79 4.054 115.016 4.054C113.09 4.054 112.046 5.098 112.046 6.466C112.046 7.294 112.424 8.032 113.342 8.572L114.962 9.544C115.628 9.94 115.862 10.282 115.862 10.732C115.862 11.398 115.322 11.866 114.332 11.866C113.432 11.866 112.586 11.434 112.136 11.038V12.658C112.676 12.928 113.504 13.18 114.404 13.18C116.258 13.18 117.41 12.226 117.41 10.732C117.41 9.904 117.068 9.148 115.934 8.464L114.386 7.546C113.864 7.222 113.612 6.97 113.612 6.502C113.612 5.872 114.098 5.386 115.034 5.386C115.754 5.386 116.474 5.674 117.032 6.088V4.504ZM128.484 4.504C127.98 4.252 127.242 4.054 126.468 4.054C124.542 4.054 123.498 5.098 123.498 6.466C123.498 7.294 123.876 8.032 124.794 8.572L126.414 9.544C127.08 9.94 127.314 10.282 127.314 10.732C127.314 11.398 126.774 11.866 125.784 11.866C124.884 11.866 124.038 11.434 123.588 11.038V12.658C124.128 12.928 124.956 13.18 125.856 13.18C127.71 13.18 128.862 12.226 128.862 10.732C128.862 9.904 128.52 9.148 127.386 8.464L125.838 7.546C125.316 7.222 125.064 6.97 125.064 6.502C125.064 5.872 125.55 5.386 126.486 5.386C127.206 5.386 127.926 5.674 128.484 6.088V4.504ZM132.477 4.234H130.983V13H132.477V4.234ZM130.749 1.48C130.749 2.038 131.181 2.452 131.721 2.452C132.315 2.452 132.729 2.038 132.729 1.48C132.729 0.922 132.315 0.489999 131.721 0.489999C131.181 0.489999 130.749 0.922 130.749 1.48ZM136.63 4.234H135.136V13H136.63V7.564C136.684 6.25 137.494 5.53 138.664 5.53C139.816 5.53 140.644 6.286 140.644 7.69V13H142.138V7.69C142.138 6.304 142.984 5.53 144.154 5.53C145.324 5.53 146.152 6.286 146.152 7.69V13H147.646V7.33C147.646 5.314 146.314 4.054 144.568 4.054C143.218 4.054 142.282 4.756 141.886 5.872C141.418 4.702 140.356 4.054 139.06 4.054C137.926 4.054 137.098 4.594 136.63 5.44V4.234ZM151.716 4.234H150.222V16.69H151.716V11.254C152.346 12.424 153.534 13.18 155.028 13.18C157.548 13.18 159.384 11.2 159.384 8.608C159.384 6.052 157.548 4.054 155.046 4.054C153.534 4.054 152.346 4.828 151.716 6.07V4.234ZM151.716 8.608C151.716 6.916 153.03 5.53 154.776 5.53C156.504 5.53 157.818 6.916 157.818 8.608C157.818 10.336 156.504 11.704 154.776 11.704C153.03 11.704 151.716 10.336 151.716 8.608ZM163.006 0.579999H161.512V13H163.006V0.579999ZM166.149 16.69H167.877L173.223 4.234H171.513L168.939 10.444L166.437 4.234H164.727L168.111 12.334L166.149 16.69ZM185.878 13H187.39V0.579999H185.878V5.998C185.248 4.828 184.06 4.054 182.584 4.054C180.046 4.054 178.228 6.052 178.228 8.608C178.228 11.2 180.046 13.18 182.584 13.18C184.06 13.18 185.248 12.424 185.878 11.254V13ZM185.878 8.608C185.878 10.336 184.582 11.704 182.836 11.704C181.108 11.704 179.776 10.336 179.776 8.608C179.776 6.916 181.108 5.53 182.836 5.53C184.582 5.53 185.878 6.916 185.878 8.608ZM195.89 13H197.402V4.234H195.89V9.49C195.836 10.822 195.026 11.722 193.694 11.722C192.308 11.722 191.498 10.75 191.498 9.364V4.234H190.004V9.706C190.004 11.722 191.282 13.18 193.28 13.18C194.558 13.18 195.44 12.568 195.89 11.632V13ZM201.593 4.234H200.099V13H201.593V7.564C201.647 6.25 202.457 5.53 203.627 5.53C204.779 5.53 205.607 6.286 205.607 7.69V13H207.101V7.69C207.101 6.304 207.947 5.53 209.117 5.53C210.287 5.53 211.115 6.286 211.115 7.69V13H212.609V7.33C212.609 5.314 211.277 4.054 209.531 4.054C208.181 4.054 207.245 4.756 206.849 5.872C206.381 4.702 205.319 4.054 204.023 4.054C202.889 4.054 202.061 4.594 201.593 5.44V4.234ZM216.679 4.234H215.185V13H216.679V7.564C216.733 6.25 217.543 5.53 218.713 5.53C219.865 5.53 220.693 6.286 220.693 7.69V13H222.187V7.69C222.187 6.304 223.033 5.53 224.203 5.53C225.373 5.53 226.201 6.286 226.201 7.69V13H227.695V7.33C227.695 5.314 226.363 4.054 224.617 4.054C223.267 4.054 222.331 4.756 221.935 5.872C221.467 4.702 220.405 4.054 219.109 4.054C217.975 4.054 217.147 4.594 216.679 5.44V4.234ZM230.458 16.69H232.186L237.532 4.234H235.822L233.248 10.444L230.746 4.234H229.036L232.42 12.334L230.458 16.69ZM245.115 13V5.53H246.843V4.234H245.115V1.714L243.693 2.092V4.234H241.983V5.53H243.621V13H245.115ZM256.311 9.166C256.347 8.986 256.383 8.626 256.383 8.356C256.383 5.962 254.673 4.054 252.153 4.054C249.651 4.054 247.779 6.052 247.779 8.608C247.779 11.272 249.705 13.18 252.243 13.18C253.593 13.18 254.745 12.748 255.501 12.262V10.714C254.763 11.29 253.557 11.812 252.351 11.812C250.695 11.812 249.471 10.714 249.291 9.166H256.311ZM252.153 5.35C253.683 5.35 254.907 6.394 254.925 7.978H249.291C249.399 6.502 250.587 5.35 252.153 5.35ZM261.012 9.76L263.154 13H264.918L261.948 8.608L264.918 4.234H263.154L261.012 7.474L258.87 4.234H257.106L260.094 8.608L257.106 13H258.87L261.012 9.76ZM268.752 13V5.53H270.48V4.234H268.752V1.714L267.33 2.092V4.234H265.62V5.53H267.258V13H268.752ZM275.797 8.608C275.797 11.2 277.795 13.18 280.351 13.18C282.943 13.18 284.905 11.2 284.905 8.608C284.905 6.052 282.943 4.054 280.351 4.054C277.795 4.054 275.797 6.052 275.797 8.608ZM277.345 8.608C277.345 6.898 278.641 5.53 280.351 5.53C282.079 5.53 283.375 6.898 283.375 8.608C283.375 10.336 282.079 11.722 280.351 11.722C278.641 11.722 277.345 10.336 277.345 8.608ZM291.155 4.234H288.959V3.226C288.959 2.38 289.391 1.876 290.255 1.876C290.669 1.876 291.083 1.984 291.263 2.074V0.543999C291.047 0.471999 290.543 0.399999 290.219 0.399999C288.527 0.399999 287.465 1.39 287.465 3.136V4.234H286.097V5.53H287.465V13H288.959V5.53H291.155V4.234ZM298.955 13V5.53H300.683V4.234H298.955V1.714L297.533 2.092V4.234H295.823V5.53H297.461V13H298.955ZM303.83 0.579999H302.336V13H303.83V7.78C303.884 6.43 304.694 5.53 306.044 5.53C307.412 5.53 308.258 6.502 308.258 7.888V13H309.752V7.528C309.752 5.53 308.474 4.054 306.458 4.054C305.198 4.054 304.316 4.684 303.83 5.62V0.579999ZM320.298 9.166C320.334 8.986 320.37 8.626 320.37 8.356C320.37 5.962 318.66 4.054 316.14 4.054C313.638 4.054 311.766 6.052 311.766 8.608C311.766 11.272 313.692 13.18 316.23 13.18C317.58 13.18 318.732 12.748 319.488 12.262V10.714C318.75 11.29 317.544 11.812 316.338 11.812C314.682 11.812 313.458 10.714 313.278 9.166H320.298ZM316.14 5.35C317.67 5.35 318.894 6.394 318.912 7.978H313.278C313.386 6.502 314.574 5.35 316.14 5.35ZM328.223 4.234H326.729V16.69H328.223V11.254C328.853 12.424 330.041 13.18 331.535 13.18C334.055 13.18 335.891 11.2 335.891 8.608C335.891 6.052 334.055 4.054 331.553 4.054C330.041 4.054 328.853 4.828 328.223 6.07V4.234ZM328.223 8.608C328.223 6.916 329.537 5.53 331.283 5.53C333.011 5.53 334.325 6.916 334.325 8.608C334.325 10.336 333.011 11.704 331.283 11.704C329.537 11.704 328.223 10.336 328.223 8.608ZM339.495 4.234H338.001V13H339.495V7.78C339.549 6.43 340.179 5.53 341.439 5.53C341.835 5.53 342.213 5.62 342.501 5.746V4.144C342.267 4.09 341.997 4.054 341.763 4.054C340.647 4.054 339.909 4.612 339.495 5.422V4.234ZM345.704 4.234H344.21V13H345.704V4.234ZM343.976 1.48C343.976 2.038 344.408 2.452 344.948 2.452C345.542 2.452 345.956 2.038 345.956 1.48C345.956 0.922 345.542 0.489999 344.948 0.489999C344.408 0.489999 343.976 0.922 343.976 1.48ZM349.857 4.234H348.363V13H349.857V7.78C349.911 6.43 350.721 5.53 352.071 5.53C353.439 5.53 354.285 6.502 354.285 7.888V13H355.779V7.528C355.779 5.53 354.501 4.054 352.485 4.054C351.207 4.054 350.343 4.684 349.857 5.62V4.234ZM360.424 13V5.53H362.152V4.234H360.424V1.714L359.002 2.092V4.234H357.292V5.53H358.93V13H360.424ZM365.299 4.234H363.805V13H365.299V4.234ZM363.571 1.48C363.571 2.038 364.003 2.452 364.543 2.452C365.137 2.452 365.551 2.038 365.551 1.48C365.551 0.922 365.137 0.489999 364.543 0.489999C364.003 0.489999 363.571 0.922 363.571 1.48ZM369.452 4.234H367.958V13H369.452V7.78C369.506 6.43 370.316 5.53 371.666 5.53C373.034 5.53 373.88 6.502 373.88 7.888V13H375.374V7.528C375.374 5.53 374.096 4.054 372.08 4.054C370.802 4.054 369.938 4.684 369.452 5.62V4.234ZM384.948 4.234V5.962C384.318 4.81 383.148 4.054 381.654 4.054C379.206 4.054 377.388 5.998 377.388 8.5C377.388 11.02 379.206 12.928 381.654 12.928C383.148 12.928 384.318 12.19 384.948 11.092V12.514C384.948 14.26 383.652 15.448 381.906 15.448C380.718 15.448 379.512 14.998 378.81 14.494V16.114C379.44 16.474 380.592 16.87 381.888 16.87C384.606 16.87 386.442 15.178 386.442 12.334V4.234H384.948ZM384.876 8.5C384.876 10.174 383.634 11.47 381.924 11.47C380.25 11.47 378.99 10.174 378.99 8.5C378.99 6.844 380.25 5.548 381.924 5.548C383.634 5.548 384.876 6.844 384.876 8.5ZM393.798 6.142C394.5 5.71 395.31 5.422 396.174 5.422C397.218 5.422 398.208 5.998 398.208 7.402V8.41C397.776 7.87 396.876 7.384 395.922 7.384C394.122 7.384 392.844 8.644 392.844 10.264C392.844 11.848 393.978 13.18 395.904 13.18C396.912 13.18 397.74 12.73 398.208 12.046V13H399.702V7.42C399.702 5.062 398.298 4.054 396.318 4.054C395.346 4.054 394.446 4.342 393.798 4.666V6.142ZM394.338 10.264C394.338 9.31 395.202 8.536 396.264 8.536C397.29 8.536 398.19 9.31 398.19 10.264C398.19 11.254 397.326 12.028 396.264 12.028C395.22 12.028 394.338 11.254 394.338 10.264ZM403.763 4.234H402.269V13H403.763V7.78C403.817 6.43 404.627 5.53 405.977 5.53C407.345 5.53 408.191 6.502 408.191 7.888V13H409.685V7.528C409.685 5.53 408.407 4.054 406.391 4.054C405.113 4.054 404.249 4.684 403.763 5.62V4.234ZM419.35 13H420.862V0.579999H419.35V5.998C418.72 4.828 417.532 4.054 416.056 4.054C413.518 4.054 411.7 6.052 411.7 8.608C411.7 11.2 413.518 13.18 416.056 13.18C417.532 13.18 418.72 12.424 419.35 11.254V13ZM419.35 8.608C419.35 10.336 418.054 11.704 416.308 11.704C414.58 11.704 413.248 10.336 413.248 8.608C413.248 6.916 414.58 5.53 416.308 5.53C418.054 5.53 419.35 6.916 419.35 8.608ZM3.438 37V29.53H5.166V28.234H3.438V25.714L2.016 26.092V28.234H0.306V29.53H1.944V37H3.438ZM7.26848 40.69H8.99648L14.3425 28.234H12.6325L10.0585 34.444L7.55648 28.234H5.84648L9.23048 36.334L7.26848 40.69ZM17.4573 28.234H15.9633V40.69H17.4573V35.254C18.0873 36.424 19.2753 37.18 20.7693 37.18C23.2893 37.18 25.1253 35.2 25.1253 32.608C25.1253 30.052 23.2893 28.054 20.7873 28.054C19.2753 28.054 18.0873 28.828 17.4573 30.07V28.234ZM17.4573 32.608C17.4573 30.916 18.7713 29.53 20.5173 29.53C22.2453 29.53 23.5593 30.916 23.5593 32.608C23.5593 34.336 22.2453 35.704 20.5173 35.704C18.7713 35.704 17.4573 34.336 17.4573 32.608ZM35.2091 33.166C35.2451 32.986 35.2811 32.626 35.2811 32.356C35.2811 29.962 33.5711 28.054 31.0511 28.054C28.5491 28.054 26.6771 30.052 26.6771 32.608C26.6771 35.272 28.6031 37.18 31.1411 37.18C32.4911 37.18 33.6431 36.748 34.3991 36.262V34.714C33.6611 35.29 32.4551 35.812 31.2491 35.812C29.5931 35.812 28.3691 34.714 28.1891 33.166H35.2091ZM31.0511 29.35C32.5811 29.35 33.8051 30.394 33.8231 31.978H28.1891C28.2971 30.502 29.4851 29.35 31.0511 29.35ZM41.7953 28.504C41.2913 28.252 40.5533 28.054 39.7793 28.054C37.8533 28.054 36.8093 29.098 36.8093 30.466C36.8093 31.294 37.1873 32.032 38.1053 32.572L39.7253 33.544C40.3913 33.94 40.6253 34.282 40.6253 34.732C40.6253 35.398 40.0853 35.866 39.0953 35.866C38.1953 35.866 37.3493 35.434 36.8993 35.038V36.658C37.4393 36.928 38.2673 37.18 39.1673 37.18C41.0213 37.18 42.1733 36.226 42.1733 34.732C42.1733 33.904 41.8313 33.148 40.6973 32.464L39.1493 31.546C38.6273 31.222 38.3753 30.97 38.3753 30.502C38.3753 29.872 38.8613 29.386 39.7973 29.386C40.5173 29.386 41.2373 29.674 41.7953 30.088V28.504ZM52.2683 33.166C52.3043 32.986 52.3403 32.626 52.3403 32.356C52.3403 29.962 50.6303 28.054 48.1103 28.054C45.6083 28.054 43.7363 30.052 43.7363 32.608C43.7363 35.272 45.6623 37.18 48.2003 37.18C49.5503 37.18 50.7023 36.748 51.4583 36.262V34.714C50.7203 35.29 49.5143 35.812 48.3083 35.812C46.6523 35.812 45.4283 34.714 45.2483 33.166H52.2683ZM48.1103 29.35C49.6403 29.35 50.8643 30.394 50.8823 31.978H45.2483C45.3563 30.502 46.5443 29.35 48.1103 29.35ZM56.391 37V29.53H58.119V28.234H56.391V25.714L54.969 26.092V28.234H53.259V29.53H54.897V37H56.391ZM61.9675 37V29.53H63.6955V28.234H61.9675V25.714L60.5455 26.092V28.234H58.8355V29.53H60.4735V37H61.9675ZM66.842 28.234H65.348V37H66.842V28.234ZM65.114 25.48C65.114 26.038 65.546 26.452 66.086 26.452C66.68 26.452 67.094 26.038 67.094 25.48C67.094 24.922 66.68 24.49 66.086 24.49C65.546 24.49 65.114 24.922 65.114 25.48ZM70.9947 28.234H69.5007V37H70.9947V31.78C71.0487 30.43 71.8587 29.53 73.2087 29.53C74.5767 29.53 75.4227 30.502 75.4227 31.888V37H76.9167V31.528C76.9167 29.53 75.6387 28.054 73.6227 28.054C72.3447 28.054 71.4807 28.684 70.9947 29.62V28.234ZM86.4913 28.234V29.962C85.8613 28.81 84.6913 28.054 83.1973 28.054C80.7493 28.054 78.9313 29.998 78.9313 32.5C78.9313 35.02 80.7493 36.928 83.1973 36.928C84.6913 36.928 85.8613 36.19 86.4913 35.092V36.514C86.4913 38.26 85.1953 39.448 83.4493 39.448C82.2613 39.448 81.0553 38.998 80.3533 38.494V40.114C80.9833 40.474 82.1353 40.87 83.4313 40.87C86.1493 40.87 87.9853 39.178 87.9853 36.334V28.234H86.4913ZM86.4193 32.5C86.4193 34.174 85.1773 35.47 83.4673 35.47C81.7933 35.47 80.5333 34.174 80.5333 32.5C80.5333 30.844 81.7933 29.548 83.4673 29.548C85.1773 29.548 86.4193 30.844 86.4193 32.5ZM96.5835 28.234H95.0895V37H96.5835V28.234ZM94.8555 25.48C94.8555 26.038 95.2875 26.452 95.8275 26.452C96.4215 26.452 96.8355 26.038 96.8355 25.48C96.8355 24.922 96.4215 24.49 95.8275 24.49C95.2875 24.49 94.8555 24.922 94.8555 25.48ZM100.736 28.234H99.2422V37H100.736V31.78C100.79 30.43 101.6 29.53 102.95 29.53C104.318 29.53 105.164 30.502 105.164 31.888V37H106.658V31.528C106.658 29.53 105.38 28.054 103.364 28.054C102.086 28.054 101.222 28.684 100.736 29.62V28.234ZM116.323 37H117.835V24.58H116.323V29.998C115.693 28.828 114.505 28.054 113.029 28.054C110.491 28.054 108.673 30.052 108.673 32.608C108.673 35.2 110.491 37.18 113.029 37.18C114.505 37.18 115.693 36.424 116.323 35.254V37ZM116.323 32.608C116.323 34.336 115.027 35.704 113.281 35.704C111.553 35.704 110.221 34.336 110.221 32.608C110.221 30.916 111.553 29.53 113.281 29.53C115.027 29.53 116.323 30.916 116.323 32.608ZM126.335 37H127.847V28.234H126.335V33.49C126.281 34.822 125.471 35.722 124.139 35.722C122.753 35.722 121.943 34.75 121.943 33.364V28.234H120.449V33.706C120.449 35.722 121.727 37.18 123.725 37.18C125.003 37.18 125.885 36.568 126.335 35.632V37ZM135.098 28.504C134.594 28.252 133.856 28.054 133.082 28.054C131.156 28.054 130.112 29.098 130.112 30.466C130.112 31.294 130.49 32.032 131.408 32.572L133.028 33.544C133.694 33.94 133.928 34.282 133.928 34.732C133.928 35.398 133.388 35.866 132.398 35.866C131.498 35.866 130.652 35.434 130.202 35.038V36.658C130.742 36.928 131.57 37.18 132.47 37.18C134.324 37.18 135.476 36.226 135.476 34.732C135.476 33.904 135.134 33.148 134 32.464L132.452 31.546C131.93 31.222 131.678 30.97 131.678 30.502C131.678 29.872 132.164 29.386 133.1 29.386C133.82 29.386 134.54 29.674 135.098 30.088V28.504ZM139.758 37V29.53H141.486V28.234H139.758V25.714L138.336 26.092V28.234H136.626V29.53H138.264V37H139.758ZM144.632 28.234H143.138V37H144.632V31.78C144.686 30.43 145.316 29.53 146.576 29.53C146.972 29.53 147.35 29.62 147.638 29.746V28.144C147.404 28.09 147.134 28.054 146.9 28.054C145.784 28.054 145.046 28.612 144.632 29.422V28.234ZM149.798 40.69H151.526L156.872 28.234H155.162L152.588 34.444L150.086 28.234H148.376L151.76 36.334L149.798 40.69ZM157.537 36.046C157.537 36.694 158.023 37.18 158.689 37.18C159.337 37.18 159.841 36.694 159.841 36.046C159.841 35.38 159.337 34.894 158.689 34.894C158.023 34.894 157.537 35.38 157.537 36.046ZM173.57 37V35.524H168.53V24.76H166.982V37H173.57ZM174.365 32.608C174.365 35.2 176.363 37.18 178.919 37.18C181.511 37.18 183.473 35.2 183.473 32.608C183.473 30.052 181.511 28.054 178.919 28.054C176.363 28.054 174.365 30.052 174.365 32.608ZM175.913 32.608C175.913 30.898 177.209 29.53 178.919 29.53C180.647 29.53 181.943 30.898 181.943 32.608C181.943 34.336 180.647 35.722 178.919 35.722C177.209 35.722 175.913 34.336 175.913 32.608ZM187.074 28.234H185.58V37H187.074V31.78C187.128 30.43 187.758 29.53 189.018 29.53C189.414 29.53 189.792 29.62 190.08 29.746V28.144C189.846 28.09 189.576 28.054 189.342 28.054C188.226 28.054 187.488 28.612 187.074 29.422V28.234ZM199.446 33.166C199.482 32.986 199.518 32.626 199.518 32.356C199.518 29.962 197.808 28.054 195.288 28.054C192.786 28.054 190.914 30.052 190.914 32.608C190.914 35.272 192.84 37.18 195.378 37.18C196.728 37.18 197.88 36.748 198.636 36.262V34.714C197.898 35.29 196.692 35.812 195.486 35.812C193.83 35.812 192.606 34.714 192.426 33.166H199.446ZM195.288 29.35C196.818 29.35 198.042 30.394 198.06 31.978H192.426C192.534 30.502 193.722 29.35 195.288 29.35ZM202.973 28.234H201.479V37H202.973V31.564C203.027 30.25 203.837 29.53 205.007 29.53C206.159 29.53 206.987 30.286 206.987 31.69V37H208.481V31.69C208.481 30.304 209.327 29.53 210.497 29.53C211.667 29.53 212.495 30.286 212.495 31.69V37H213.989V31.33C213.989 29.314 212.657 28.054 210.911 28.054C209.561 28.054 208.625 28.756 208.229 29.872C207.761 28.702 206.699 28.054 205.403 28.054C204.269 28.054 203.441 28.594 202.973 29.44V28.234ZM221.306 37H222.854V24.76H221.306V37ZM227.366 28.234H225.872V40.69H227.366V35.254C227.996 36.424 229.184 37.18 230.678 37.18C233.198 37.18 235.034 35.2 235.034 32.608C235.034 30.052 233.198 28.054 230.696 28.054C229.184 28.054 227.996 28.828 227.366 30.07V28.234ZM227.366 32.608C227.366 30.916 228.68 29.53 230.426 29.53C232.154 29.53 233.468 30.916 233.468 32.608C233.468 34.336 232.154 35.704 230.426 35.704C228.68 35.704 227.366 34.336 227.366 32.608ZM241.698 28.504C241.194 28.252 240.456 28.054 239.682 28.054C237.756 28.054 236.712 29.098 236.712 30.466C236.712 31.294 237.09 32.032 238.008 32.572L239.628 33.544C240.294 33.94 240.528 34.282 240.528 34.732C240.528 35.398 239.988 35.866 238.998 35.866C238.098 35.866 237.252 35.434 236.802 35.038V36.658C237.342 36.928 238.17 37.18 239.07 37.18C240.924 37.18 242.076 36.226 242.076 34.732C242.076 33.904 241.734 33.148 240.6 32.464L239.052 31.546C238.53 31.222 238.278 30.97 238.278 30.502C238.278 29.872 238.764 29.386 239.7 29.386C240.42 29.386 241.14 29.674 241.698 30.088V28.504ZM250.029 37H251.541V28.234H250.029V33.49C249.975 34.822 249.165 35.722 247.833 35.722C246.447 35.722 245.637 34.75 245.637 33.364V28.234H244.143V33.706C244.143 35.722 245.421 37.18 247.419 37.18C248.697 37.18 249.579 36.568 250.029 35.632V37ZM255.732 28.234H254.238V37H255.732V31.564C255.786 30.25 256.596 29.53 257.766 29.53C258.918 29.53 259.746 30.286 259.746 31.69V37H261.24V31.69C261.24 30.304 262.086 29.53 263.256 29.53C264.426 29.53 265.254 30.286 265.254 31.69V37H266.748V31.33C266.748 29.314 265.416 28.054 263.67 28.054C262.32 28.054 261.384 28.756 260.988 29.872C260.52 28.702 259.458 28.054 258.162 28.054C257.028 28.054 256.2 28.594 255.732 29.44V28.234ZM275.217 24.58H273.723V37H275.217V31.78C275.271 30.43 276.081 29.53 277.431 29.53C278.799 29.53 279.645 30.502 279.645 31.888V37H281.139V31.528C281.139 29.53 279.861 28.054 277.845 28.054C276.585 28.054 275.703 28.684 275.217 29.62V24.58ZM283.964 30.142C284.666 29.71 285.476 29.422 286.34 29.422C287.384 29.422 288.374 29.998 288.374 31.402V32.41C287.942 31.87 287.042 31.384 286.088 31.384C284.288 31.384 283.01 32.644 283.01 34.264C283.01 35.848 284.144 37.18 286.07 37.18C287.078 37.18 287.906 36.73 288.374 36.046V37H289.868V31.42C289.868 29.062 288.464 28.054 286.484 28.054C285.512 28.054 284.612 28.342 283.964 28.666V30.142ZM284.504 34.264C284.504 33.31 285.368 32.536 286.43 32.536C287.456 32.536 288.356 33.31 288.356 34.264C288.356 35.254 287.492 36.028 286.43 36.028C285.386 36.028 284.504 35.254 284.504 34.264ZM296.989 28.504C296.485 28.252 295.747 28.054 294.973 28.054C293.047 28.054 292.003 29.098 292.003 30.466C292.003 31.294 292.381 32.032 293.299 32.572L294.919 33.544C295.585 33.94 295.819 34.282 295.819 34.732C295.819 35.398 295.279 35.866 294.289 35.866C293.389 35.866 292.543 35.434 292.093 35.038V36.658C292.633 36.928 293.461 37.18 294.361 37.18C296.215 37.18 297.367 36.226 297.367 34.732C297.367 33.904 297.025 33.148 295.891 32.464L294.343 31.546C293.821 31.222 293.569 30.97 293.569 30.502C293.569 29.872 294.055 29.386 294.991 29.386C295.711 29.386 296.431 29.674 296.989 30.088V28.504ZM305.381 35.254C306.011 36.424 307.217 37.18 308.711 37.18C311.213 37.18 313.049 35.2 313.049 32.608C313.049 30.052 311.213 28.054 308.711 28.054C307.217 28.054 306.011 28.828 305.381 29.998V24.58H303.887V37H305.381V35.254ZM305.381 32.608C305.381 30.916 306.695 29.53 308.441 29.53C310.169 29.53 311.483 30.916 311.483 32.608C311.483 34.336 310.169 35.704 308.441 35.704C306.695 35.704 305.381 34.336 305.381 32.608ZM323.132 33.166C323.168 32.986 323.204 32.626 323.204 32.356C323.204 29.962 321.494 28.054 318.974 28.054C316.472 28.054 314.6 30.052 314.6 32.608C314.6 35.272 316.526 37.18 319.064 37.18C320.414 37.18 321.566 36.748 322.322 36.262V34.714C321.584 35.29 320.378 35.812 319.172 35.812C317.516 35.812 316.292 34.714 316.112 33.166H323.132ZM318.974 29.35C320.504 29.35 321.728 30.394 321.746 31.978H316.112C316.22 30.502 317.408 29.35 318.974 29.35ZM333.139 33.166C333.175 32.986 333.211 32.626 333.211 32.356C333.211 29.962 331.501 28.054 328.981 28.054C326.479 28.054 324.607 30.052 324.607 32.608C324.607 35.272 326.533 37.18 329.071 37.18C330.421 37.18 331.573 36.748 332.329 36.262V34.714C331.591 35.29 330.385 35.812 329.179 35.812C327.523 35.812 326.299 34.714 326.119 33.166H333.139ZM328.981 29.35C330.511 29.35 331.735 30.394 331.753 31.978H326.119C326.227 30.502 327.415 29.35 328.981 29.35ZM336.665 28.234H335.171V37H336.665V31.78C336.719 30.43 337.529 29.53 338.879 29.53C340.247 29.53 341.093 30.502 341.093 31.888V37H342.587V31.528C342.587 29.53 341.309 28.054 339.293 28.054C338.015 28.054 337.151 28.684 336.665 29.62V28.234ZM351.578 37V29.53H353.306V28.234H351.578V25.714L350.156 26.092V28.234H348.446V29.53H350.084V37H351.578ZM356.453 24.58H354.959V37H356.453V31.78C356.507 30.43 357.317 29.53 358.667 29.53C360.035 29.53 360.881 30.502 360.881 31.888V37H362.375V31.528C362.375 29.53 361.097 28.054 359.081 28.054C357.821 28.054 356.939 28.684 356.453 29.62V24.58ZM372.921 33.166C372.957 32.986 372.993 32.626 372.993 32.356C372.993 29.962 371.283 28.054 368.763 28.054C366.261 28.054 364.389 30.052 364.389 32.608C364.389 35.272 366.315 37.18 368.853 37.18C370.203 37.18 371.355 36.748 372.111 36.262V34.714C371.373 35.29 370.167 35.812 368.961 35.812C367.305 35.812 366.081 34.714 365.901 33.166H372.921ZM368.763 29.35C370.293 29.35 371.517 30.394 371.535 31.978H365.901C366.009 30.502 367.197 29.35 368.763 29.35ZM380.846 28.234H379.352V37H380.846V28.234ZM379.118 25.48C379.118 26.038 379.55 26.452 380.09 26.452C380.684 26.452 381.098 26.038 381.098 25.48C381.098 24.922 380.684 24.49 380.09 24.49C379.55 24.49 379.118 24.922 379.118 25.48ZM384.999 28.234H383.505V37H384.999V31.78C385.053 30.43 385.863 29.53 387.213 29.53C388.581 29.53 389.427 30.502 389.427 31.888V37H390.921V31.528C390.921 29.53 389.643 28.054 387.627 28.054C386.349 28.054 385.485 28.684 384.999 29.62V28.234ZM400.586 37H402.098V24.58H400.586V29.998C399.956 28.828 398.768 28.054 397.292 28.054C394.754 28.054 392.936 30.052 392.936 32.608C392.936 35.2 394.754 37.18 397.292 37.18C398.768 37.18 399.956 36.424 400.586 35.254V37ZM400.586 32.608C400.586 34.336 399.29 35.704 397.544 35.704C395.816 35.704 394.484 34.336 394.484 32.608C394.484 30.916 395.816 29.53 397.544 29.53C399.29 29.53 400.586 30.916 400.586 32.608ZM410.597 37H412.109V28.234H410.597V33.49C410.543 34.822 409.733 35.722 408.401 35.722C407.015 35.722 406.205 34.75 406.205 33.364V28.234H404.711V33.706C404.711 35.722 405.989 37.18 407.987 37.18C409.265 37.18 410.147 36.568 410.597 35.632V37ZM419.361 28.504C418.857 28.252 418.119 28.054 417.345 28.054C415.419 28.054 414.375 29.098 414.375 30.466C414.375 31.294 414.753 32.032 415.671 32.572L417.291 33.544C417.957 33.94 418.191 34.282 418.191 34.732C418.191 35.398 417.651 35.866 416.661 35.866C415.761 35.866 414.915 35.434 414.465 35.038V36.658C415.005 36.928 415.833 37.18 416.733 37.18C418.587 37.18 419.739 36.226 419.739 34.732C419.739 33.904 419.397 33.148 418.263 32.464L416.715 31.546C416.193 31.222 415.941 30.97 415.941 30.502C415.941 29.872 416.427 29.386 417.363 29.386C418.083 29.386 418.803 29.674 419.361 30.088V28.504ZM424.021 37V29.53H425.749V28.234H424.021V25.714L422.599 26.092V28.234H420.889V29.53H422.527V37H424.021ZM428.895 28.234H427.401V37H428.895V31.78C428.949 30.43 429.579 29.53 430.839 29.53C431.235 29.53 431.613 29.62 431.901 29.746V28.144C431.667 28.09 431.397 28.054 431.163 28.054C430.047 28.054 429.309 28.612 428.895 29.422V28.234ZM434.06 40.69H435.788L441.134 28.234H439.424L436.85 34.444L434.348 28.234H432.638L436.022 36.334L434.06 40.69ZM444.051 28.63L444.123 24.976H442.575L442.647 28.63H444.051ZM451.075 28.504C450.571 28.252 449.833 28.054 449.059 28.054C447.133 28.054 446.089 29.098 446.089 30.466C446.089 31.294 446.467 32.032 447.385 32.572L449.005 33.544C449.671 33.94 449.905 34.282 449.905 34.732C449.905 35.398 449.365 35.866 448.375 35.866C447.475 35.866 446.629 35.434 446.179 35.038V36.658C446.719 36.928 447.547 37.18 448.447 37.18C450.301 37.18 451.453 36.226 451.453 34.732C451.453 33.904 451.111 33.148 449.977 32.464L448.429 31.546C447.907 31.222 447.655 30.97 447.655 30.502C447.655 29.872 448.141 29.386 449.077 29.386C449.797 29.386 450.517 29.674 451.075 30.088V28.504ZM5.796 52.504C5.292 52.252 4.554 52.054 3.78 52.054C1.854 52.054 0.81 53.098 0.81 54.466C0.81 55.294 1.188 56.032 2.106 56.572L3.726 57.544C4.392 57.94 4.626 58.282 4.626 58.732C4.626 59.398 4.086 59.866 3.096 59.866C2.196 59.866 1.35 59.434 0.9 59.038V60.658C1.44 60.928 2.268 61.18 3.168 61.18C5.022 61.18 6.174 60.226 6.174 58.732C6.174 57.904 5.832 57.148 4.698 56.464L3.15 55.546C2.628 55.222 2.376 54.97 2.376 54.502C2.376 53.872 2.862 53.386 3.798 53.386C4.518 53.386 5.238 53.674 5.796 54.088V52.504ZM10.4559 61V53.53H12.1839V52.234H10.4559V49.714L9.03389 50.092V52.234H7.32389V53.53H8.96189V61H10.4559ZM14.0356 54.142C14.7376 53.71 15.5476 53.422 16.4116 53.422C17.4556 53.422 18.4456 53.998 18.4456 55.402V56.41C18.0136 55.87 17.1136 55.384 16.1596 55.384C14.3596 55.384 13.0816 56.644 13.0816 58.264C13.0816 59.848 14.2156 61.18 16.1416 61.18C17.1496 61.18 17.9776 60.73 18.4456 60.046V61H19.9396V55.42C19.9396 53.062 18.5356 52.054 16.5556 52.054C15.5836 52.054 14.6836 52.342 14.0356 52.666V54.142ZM14.5756 58.264C14.5756 57.31 15.4396 56.536 16.5016 56.536C17.5276 56.536 18.4276 57.31 18.4276 58.264C18.4276 59.254 17.5636 60.028 16.5016 60.028C15.4576 60.028 14.5756 59.254 14.5756 58.264ZM24.0006 52.234H22.5066V61H24.0006V55.78C24.0546 54.43 24.8646 53.53 26.2146 53.53C27.5826 53.53 28.4286 54.502 28.4286 55.888V61H29.9226V55.528C29.9226 53.53 28.6446 52.054 26.6286 52.054C25.3506 52.054 24.4866 52.684 24.0006 53.62V52.234ZM39.5872 61H41.0992V48.58H39.5872V53.998C38.9572 52.828 37.7692 52.054 36.2932 52.054C33.7552 52.054 31.9372 54.052 31.9372 56.608C31.9372 59.2 33.7552 61.18 36.2932 61.18C37.7692 61.18 38.9572 60.424 39.5872 59.254V61ZM39.5872 56.608C39.5872 58.336 38.2912 59.704 36.5452 59.704C34.8172 59.704 33.4852 58.336 33.4852 56.608C33.4852 54.916 34.8172 53.53 36.5452 53.53C38.2912 53.53 39.5872 54.916 39.5872 56.608ZM44.019 54.142C44.721 53.71 45.531 53.422 46.395 53.422C47.439 53.422 48.429 53.998 48.429 55.402V56.41C47.997 55.87 47.097 55.384 46.143 55.384C44.343 55.384 43.065 56.644 43.065 58.264C43.065 59.848 44.199 61.18 46.125 61.18C47.133 61.18 47.961 60.73 48.429 60.046V61H49.923V55.42C49.923 53.062 48.519 52.054 46.539 52.054C45.567 52.054 44.667 52.342 44.019 52.666V54.142ZM44.559 58.264C44.559 57.31 45.423 56.536 46.485 56.536C47.511 56.536 48.411 57.31 48.411 58.264C48.411 59.254 47.547 60.028 46.485 60.028C45.441 60.028 44.559 59.254 44.559 58.264ZM53.984 52.234H52.49V61H53.984V55.78C54.038 54.43 54.668 53.53 55.928 53.53C56.324 53.53 56.702 53.62 56.99 53.746V52.144C56.756 52.09 56.486 52.054 56.252 52.054C55.136 52.054 54.398 52.612 53.984 53.422V52.234ZM65.4749 61H66.9869V48.58H65.4749V53.998C64.8449 52.828 63.6569 52.054 62.1809 52.054C59.6429 52.054 57.8249 54.052 57.8249 56.608C57.8249 59.2 59.6429 61.18 62.1809 61.18C63.6569 61.18 64.8449 60.424 65.4749 59.254V61ZM65.4749 56.608C65.4749 58.336 64.1789 59.704 62.4329 59.704C60.7049 59.704 59.3729 58.336 59.3729 56.608C59.3729 54.916 60.7049 53.53 62.4329 53.53C64.1789 53.53 65.4749 54.916 65.4749 56.608ZM81.1454 61H82.6574V48.58H81.1454V53.998C80.5154 52.828 79.3274 52.054 77.8514 52.054C75.3134 52.054 73.4954 54.052 73.4954 56.608C73.4954 59.2 75.3134 61.18 77.8514 61.18C79.3274 61.18 80.5154 60.424 81.1454 59.254V61ZM81.1454 56.608C81.1454 58.336 79.8494 59.704 78.1034 59.704C76.3754 59.704 75.0434 58.336 75.0434 56.608C75.0434 54.916 76.3754 53.53 78.1034 53.53C79.8494 53.53 81.1454 54.916 81.1454 56.608ZM91.1572 61H92.6692V52.234H91.1572V57.49C91.1032 58.822 90.2932 59.722 88.9612 59.722C87.5752 59.722 86.7652 58.75 86.7652 57.364V52.234H85.2712V57.706C85.2712 59.722 86.5492 61.18 88.5472 61.18C89.8252 61.18 90.7072 60.568 91.1572 59.632V61ZM96.8605 52.234H95.3665V61H96.8605V55.564C96.9145 54.25 97.7245 53.53 98.8945 53.53C100.047 53.53 100.875 54.286 100.875 55.69V61H102.369V55.69C102.369 54.304 103.215 53.53 104.385 53.53C105.555 53.53 106.383 54.286 106.383 55.69V61H107.877V55.33C107.877 53.314 106.545 52.054 104.799 52.054C103.449 52.054 102.513 52.756 102.117 53.872C101.649 52.702 100.587 52.054 99.2905 52.054C98.1565 52.054 97.3285 52.594 96.8605 53.44V52.234ZM111.947 52.234H110.453V61H111.947V55.564C112.001 54.25 112.811 53.53 113.981 53.53C115.133 53.53 115.961 54.286 115.961 55.69V61H117.455V55.69C117.455 54.304 118.301 53.53 119.471 53.53C120.641 53.53 121.469 54.286 121.469 55.69V61H122.963V55.33C122.963 53.314 121.631 52.054 119.885 52.054C118.535 52.054 117.599 52.756 117.203 53.872C116.735 52.702 115.673 52.054 114.377 52.054C113.243 52.054 112.415 52.594 111.947 53.44V52.234ZM125.725 64.69H127.453L132.799 52.234H131.089L128.515 58.444L126.013 52.234H124.303L127.687 60.334L125.725 64.69ZM140.382 61V53.53H142.11V52.234H140.382V49.714L138.96 50.092V52.234H137.25V53.53H138.888V61H140.382ZM151.578 57.166C151.614 56.986 151.65 56.626 151.65 56.356C151.65 53.962 149.94 52.054 147.42 52.054C144.918 52.054 143.046 54.052 143.046 56.608C143.046 59.272 144.972 61.18 147.51 61.18C148.86 61.18 150.012 60.748 150.768 60.262V58.714C150.03 59.29 148.824 59.812 147.618 59.812C145.962 59.812 144.738 58.714 144.558 57.166H151.578ZM147.42 53.35C148.95 53.35 150.174 54.394 150.192 55.978H144.558C144.666 54.502 145.854 53.35 147.42 53.35ZM156.28 57.76L158.422 61H160.186L157.216 56.608L160.186 52.234H158.422L156.28 55.474L154.138 52.234H152.374L155.362 56.608L152.374 61H154.138L156.28 57.76ZM164.02 61V53.53H165.748V52.234H164.02V49.714L162.598 50.092V52.234H160.888V53.53H162.526V61H164.02ZM179.615 57.166C179.651 56.986 179.687 56.626 179.687 56.356C179.687 53.962 177.977 52.054 175.457 52.054C172.955 52.054 171.083 54.052 171.083 56.608C171.083 59.272 173.009 61.18 175.547 61.18C176.897 61.18 178.049 60.748 178.805 60.262V58.714C178.067 59.29 176.861 59.812 175.655 59.812C173.999 59.812 172.775 58.714 172.595 57.166H179.615ZM175.457 53.35C176.987 53.35 178.211 54.394 178.229 55.978H172.595C172.703 54.502 173.891 53.35 175.457 53.35ZM180.446 52.234L183.938 61H185.522L189.032 52.234H187.448L184.73 59.164L182.03 52.234H180.446ZM198.379 57.166C198.415 56.986 198.451 56.626 198.451 56.356C198.451 53.962 196.741 52.054 194.221 52.054C191.719 52.054 189.847 54.052 189.847 56.608C189.847 59.272 191.773 61.18 194.311 61.18C195.661 61.18 196.813 60.748 197.569 60.262V58.714C196.831 59.29 195.625 59.812 194.419 59.812C192.763 59.812 191.539 58.714 191.359 57.166H198.379ZM194.221 53.35C195.751 53.35 196.975 54.394 196.993 55.978H191.359C191.467 54.502 192.655 53.35 194.221 53.35ZM201.905 52.234H200.411V61H201.905V55.78C201.959 54.43 202.589 53.53 203.849 53.53C204.245 53.53 204.623 53.62 204.911 53.746V52.144C204.677 52.09 204.407 52.054 204.173 52.054C203.057 52.054 202.319 52.612 201.905 53.422V52.234ZM215.187 52.504C214.683 52.252 213.945 52.054 213.171 52.054C211.245 52.054 210.201 53.098 210.201 54.466C210.201 55.294 210.579 56.032 211.497 56.572L213.117 57.544C213.783 57.94 214.017 58.282 214.017 58.732C214.017 59.398 213.477 59.866 212.487 59.866C211.587 59.866 210.741 59.434 210.291 59.038V60.658C210.831 60.928 211.659 61.18 212.559 61.18C214.413 61.18 215.565 60.226 215.565 58.732C215.565 57.904 215.223 57.148 214.089 56.464L212.541 55.546C212.019 55.222 211.767 54.97 211.767 54.502C211.767 53.872 212.253 53.386 213.189 53.386C213.909 53.386 214.629 53.674 215.187 54.088V52.504ZM219.18 52.234H217.686V61H219.18V52.234ZM217.452 49.48C217.452 50.038 217.884 50.452 218.424 50.452C219.018 50.452 219.432 50.038 219.432 49.48C219.432 48.922 219.018 48.49 218.424 48.49C217.884 48.49 217.452 48.922 217.452 49.48ZM223.332 52.234H221.838V61H223.332V55.78C223.386 54.43 224.196 53.53 225.546 53.53C226.914 53.53 227.76 54.502 227.76 55.888V61H229.254V55.528C229.254 53.53 227.976 52.054 225.96 52.054C224.682 52.054 223.818 52.684 223.332 53.62V52.234ZM238.127 58.948C237.569 59.398 236.741 59.722 235.859 59.722C234.113 59.722 232.799 58.336 232.799 56.608C232.799 54.898 234.113 53.53 235.859 53.53C236.759 53.53 237.551 53.836 238.127 54.304V52.648C237.515 52.288 236.633 52.054 235.859 52.054C233.195 52.054 231.269 54.034 231.269 56.608C231.269 59.2 233.195 61.18 235.859 61.18C236.651 61.18 237.515 60.946 238.127 60.568V58.948ZM248.12 57.166C248.156 56.986 248.192 56.626 248.192 56.356C248.192 53.962 246.482 52.054 243.962 52.054C241.46 52.054 239.588 54.052 239.588 56.608C239.588 59.272 241.514 61.18 244.052 61.18C245.402 61.18 246.554 60.748 247.31 60.262V58.714C246.572 59.29 245.366 59.812 244.16 59.812C242.504 59.812 241.28 58.714 241.1 57.166H248.12ZM243.962 53.35C245.492 53.35 246.716 54.394 246.734 55.978H241.1C241.208 54.502 242.396 53.35 243.962 53.35ZM256.571 61V53.53H258.299V52.234H256.571V49.714L255.149 50.092V52.234H253.439V53.53H255.077V61H256.571ZM261.445 48.58H259.951V61H261.445V55.78C261.499 54.43 262.309 53.53 263.659 53.53C265.027 53.53 265.873 54.502 265.873 55.888V61H267.367V55.528C267.367 53.53 266.089 52.054 264.073 52.054C262.813 52.054 261.931 52.684 261.445 53.62V48.58ZM277.914 57.166C277.95 56.986 277.986 56.626 277.986 56.356C277.986 53.962 276.276 52.054 273.756 52.054C271.254 52.054 269.382 54.052 269.382 56.608C269.382 59.272 271.308 61.18 273.846 61.18C275.196 61.18 276.348 60.748 277.104 60.262V58.714C276.366 59.29 275.16 59.812 273.954 59.812C272.298 59.812 271.074 58.714 270.894 57.166H277.914ZM273.756 53.35C275.286 53.35 276.51 54.394 276.528 55.978H270.894C271.002 54.502 272.19 53.35 273.756 53.35ZM283.787 61H291.023V59.524H288.413V48.76H284.111V50.236H286.865V59.524H283.787V61ZM299.339 50.236V48.76H293.831L293.183 54.808H294.821C296.531 54.808 297.881 55.528 297.881 57.148C297.881 58.66 296.711 59.632 295.271 59.632C293.993 59.632 293.057 59.038 292.301 58.318V60.244C293.021 60.73 294.083 61.18 295.343 61.18C297.611 61.18 299.483 59.794 299.483 57.148C299.483 54.826 297.791 53.368 295.217 53.368H294.821L295.217 50.236H299.339ZM305.822 50.092C307.424 50.092 308.414 51.244 308.414 52.774V56.986C308.414 58.516 307.424 59.668 305.822 59.668C304.238 59.668 303.248 58.516 303.248 56.986V52.774C303.248 51.244 304.238 50.092 305.822 50.092ZM305.822 48.58C303.446 48.58 301.7 50.344 301.7 52.72V57.022C301.7 59.416 303.446 61.18 305.822 61.18C308.216 61.18 309.962 59.416 309.962 57.022V52.72C309.962 50.344 308.216 48.58 305.822 48.58ZM316.532 50.092C318.134 50.092 319.124 51.244 319.124 52.774V56.986C319.124 58.516 318.134 59.668 316.532 59.668C314.948 59.668 313.958 58.516 313.958 56.986V52.774C313.958 51.244 314.948 50.092 316.532 50.092ZM316.532 48.58C314.156 48.58 312.41 50.344 312.41 52.72V57.022C312.41 59.416 314.156 61.18 316.532 61.18C318.926 61.18 320.672 59.416 320.672 57.022V52.72C320.672 50.344 318.926 48.58 316.532 48.58ZM327.781 52.504C327.277 52.252 326.539 52.054 325.765 52.054C323.839 52.054 322.795 53.098 322.795 54.466C322.795 55.294 323.173 56.032 324.091 56.572L325.711 57.544C326.377 57.94 326.611 58.282 326.611 58.732C326.611 59.398 326.071 59.866 325.081 59.866C324.181 59.866 323.335 59.434 322.885 59.038V60.658C323.425 60.928 324.253 61.18 325.153 61.18C327.007 61.18 328.159 60.226 328.159 58.732C328.159 57.904 327.817 57.148 326.683 56.464L325.135 55.546C324.613 55.222 324.361 54.97 324.361 54.502C324.361 53.872 324.847 53.386 325.783 53.386C326.503 53.386 327.223 53.674 327.781 54.088V52.504ZM331.45 63.34L332.35 59.02H330.64L330.082 63.34H331.45ZM338.125 52.234L340.807 61H342.409L344.569 55.06L346.999 61H348.583L351.283 52.234H349.717L347.701 59.128L344.929 52.234H343.399L343.831 53.332L341.707 59.128L339.691 52.234H338.125ZM354.568 48.58H353.074V61H354.568V55.78C354.622 54.43 355.432 53.53 356.782 53.53C358.15 53.53 358.996 54.502 358.996 55.888V61H360.49V55.528C360.49 53.53 359.212 52.054 357.196 52.054C355.936 52.054 355.054 52.684 354.568 53.62V48.58ZM371.036 57.166C371.072 56.986 371.108 56.626 371.108 56.356C371.108 53.962 369.398 52.054 366.878 52.054C364.376 52.054 362.504 54.052 362.504 56.608C362.504 59.272 364.43 61.18 366.968 61.18C368.318 61.18 369.47 60.748 370.226 60.262V58.714C369.488 59.29 368.282 59.812 367.076 59.812C365.42 59.812 364.196 58.714 364.016 57.166H371.036ZM366.878 53.35C368.408 53.35 369.632 54.394 369.65 55.978H364.016C364.124 54.502 365.312 53.35 366.878 53.35ZM374.563 52.234H373.069V61H374.563V55.78C374.617 54.43 375.427 53.53 376.777 53.53C378.145 53.53 378.991 54.502 378.991 55.888V61H380.485V55.528C380.485 53.53 379.207 52.054 377.191 52.054C375.913 52.054 375.049 52.684 374.563 53.62V52.234ZM387.708 54.142C388.41 53.71 389.22 53.422 390.084 53.422C391.128 53.422 392.118 53.998 392.118 55.402V56.41C391.686 55.87 390.786 55.384 389.832 55.384C388.032 55.384 386.754 56.644 386.754 58.264C386.754 59.848 387.888 61.18 389.814 61.18C390.822 61.18 391.65 60.73 392.118 60.046V61H393.612V55.42C393.612 53.062 392.208 52.054 390.228 52.054C389.256 52.054 388.356 52.342 387.708 52.666V54.142ZM388.248 58.264C388.248 57.31 389.112 56.536 390.174 56.536C391.2 56.536 392.1 57.31 392.1 58.264C392.1 59.254 391.236 60.028 390.174 60.028C389.13 60.028 388.248 59.254 388.248 58.264ZM397.673 52.234H396.179V61H397.673V55.78C397.727 54.43 398.537 53.53 399.887 53.53C401.255 53.53 402.101 54.502 402.101 55.888V61H403.595V55.528C403.595 53.53 402.317 52.054 400.301 52.054C399.023 52.054 398.159 52.684 397.673 53.62V52.234ZM7.074 85H8.586V76.234H7.074V81.49C7.02 82.822 6.21 83.722 4.878 83.722C3.492 83.722 2.682 82.75 2.682 81.364V76.234H1.188V81.706C1.188 83.722 2.466 85.18 4.464 85.18C5.742 85.18 6.624 84.568 7.074 83.632V85ZM12.7773 76.234H11.2833V85H12.7773V79.78C12.8313 78.43 13.6413 77.53 14.9913 77.53C16.3593 77.53 17.2053 78.502 17.2053 79.888V85H18.6993V79.528C18.6993 77.53 17.4213 76.054 15.4053 76.054C14.1273 76.054 13.2633 76.684 12.7773 77.62V76.234ZM21.2719 85H22.7659V82.318L24.0619 80.806L26.4019 85H28.1659L25.1779 79.744L28.0939 76.234H26.2939L22.7659 80.41V72.58H21.2719V85ZM31.278 76.234H29.784V85H31.278V79.78C31.332 78.43 32.142 77.53 33.492 77.53C34.86 77.53 35.706 78.502 35.706 79.888V85H37.2V79.528C37.2 77.53 35.922 76.054 33.906 76.054C32.628 76.054 31.764 76.684 31.278 77.62V76.234ZM39.1965 80.608C39.1965 83.2 41.1945 85.18 43.7505 85.18C46.3425 85.18 48.3045 83.2 48.3045 80.608C48.3045 78.052 46.3425 76.054 43.7505 76.054C41.1945 76.054 39.1965 78.052 39.1965 80.608ZM40.7445 80.608C40.7445 78.898 42.0405 77.53 43.7505 77.53C45.4785 77.53 46.7745 78.898 46.7745 80.608C46.7745 82.336 45.4785 83.722 43.7505 83.722C42.0405 83.722 40.7445 82.336 40.7445 80.608ZM49.3889 76.234L52.0709 85H53.6729L55.8329 79.06L58.2629 85H59.8469L62.5469 76.234H60.9809L58.9649 83.128L56.1929 76.234H54.6629L55.0949 77.332L52.9709 83.128L50.9549 76.234H49.3889ZM65.8316 76.234H64.3376V85H65.8316V79.78C65.8856 78.43 66.6956 77.53 68.0456 77.53C69.4136 77.53 70.2596 78.502 70.2596 79.888V85H71.7536V79.528C71.7536 77.53 70.4756 76.054 68.4596 76.054C67.1816 76.054 66.3176 76.684 65.8316 77.62V76.234ZM80.219 76.234H78.725V88.69H80.219V83.254C80.849 84.424 82.037 85.18 83.531 85.18C86.051 85.18 87.887 83.2 87.887 80.608C87.887 78.052 86.051 76.054 83.549 76.054C82.037 76.054 80.849 76.828 80.219 78.07V76.234ZM80.219 80.608C80.219 78.916 81.533 77.53 83.279 77.53C85.007 77.53 86.321 78.916 86.321 80.608C86.321 82.336 85.007 83.704 83.279 83.704C81.533 83.704 80.219 82.336 80.219 80.608ZM91.4908 76.234H89.9968V85H91.4908V79.78C91.5448 78.43 92.1748 77.53 93.4348 77.53C93.8308 77.53 94.2088 77.62 94.4968 77.746V76.144C94.2628 76.09 93.9928 76.054 93.7588 76.054C92.6428 76.054 91.9048 76.612 91.4908 77.422V76.234ZM97.7001 76.234H96.2061V85H97.7001V76.234ZM95.9721 73.48C95.9721 74.038 96.4041 74.452 96.9441 74.452C97.5381 74.452 97.9521 74.038 97.9521 73.48C97.9521 72.922 97.5381 72.49 96.9441 72.49C96.4041 72.49 95.9721 72.922 95.9721 73.48ZM101.853 76.234H100.359V85H101.853V79.78C101.907 78.43 102.717 77.53 104.067 77.53C105.435 77.53 106.281 78.502 106.281 79.888V85H107.775V79.528C107.775 77.53 106.497 76.054 104.481 76.054C103.203 76.054 102.339 76.684 101.853 77.62V76.234ZM112.42 85V77.53H114.148V76.234H112.42V73.714L110.998 74.092V76.234H109.288V77.53H110.926V85H112.42ZM123.617 81.166C123.653 80.986 123.689 80.626 123.689 80.356C123.689 77.962 121.979 76.054 119.459 76.054C116.957 76.054 115.085 78.052 115.085 80.608C115.085 83.272 117.011 85.18 119.549 85.18C120.899 85.18 122.051 84.748 122.807 84.262V82.714C122.069 83.29 120.863 83.812 119.657 83.812C118.001 83.812 116.777 82.714 116.597 81.166H123.617ZM119.459 77.35C120.989 77.35 122.213 78.394 122.231 79.978H116.597C116.705 78.502 117.893 77.35 119.459 77.35ZM127.143 76.234H125.649V85H127.143V79.78C127.197 78.43 127.827 77.53 129.087 77.53C129.483 77.53 129.861 77.62 130.149 77.746V76.144C129.915 76.09 129.645 76.054 129.411 76.054C128.295 76.054 127.557 76.612 127.143 77.422V76.234ZM137.89 85V77.53H139.618V76.234H137.89V73.714L136.468 74.092V76.234H134.758V77.53H136.396V85H137.89ZM140.537 80.608C140.537 83.2 142.535 85.18 145.091 85.18C147.683 85.18 149.645 83.2 149.645 80.608C149.645 78.052 147.683 76.054 145.091 76.054C142.535 76.054 140.537 78.052 140.537 80.608ZM142.085 80.608C142.085 78.898 143.381 77.53 145.091 77.53C146.819 77.53 148.115 78.898 148.115 80.608C148.115 82.336 146.819 83.722 145.091 83.722C143.381 83.722 142.085 82.336 142.085 80.608ZM151.176 80.608C151.176 83.2 153.174 85.18 155.73 85.18C158.322 85.18 160.284 83.2 160.284 80.608C160.284 78.052 158.322 76.054 155.73 76.054C153.174 76.054 151.176 78.052 151.176 80.608ZM152.724 80.608C152.724 78.898 154.02 77.53 155.73 77.53C157.458 77.53 158.754 78.898 158.754 80.608C158.754 82.336 157.458 83.722 155.73 83.722C154.02 83.722 152.724 82.336 152.724 80.608ZM162.391 85H163.885V82.318L165.181 80.806L167.521 85H169.285L166.297 79.744L169.213 76.234H167.413L163.885 80.41V72.58H162.391V85ZM175.553 78.142C176.255 77.71 177.065 77.422 177.929 77.422C178.973 77.422 179.963 77.998 179.963 79.402V80.41C179.531 79.87 178.631 79.384 177.677 79.384C175.877 79.384 174.599 80.644 174.599 82.264C174.599 83.848 175.733 85.18 177.659 85.18C178.667 85.18 179.495 84.73 179.963 84.046V85H181.457V79.42C181.457 77.062 180.053 76.054 178.073 76.054C177.101 76.054 176.201 76.342 175.553 76.666V78.142ZM176.093 82.264C176.093 81.31 176.957 80.536 178.019 80.536C179.045 80.536 179.945 81.31 179.945 82.264C179.945 83.254 179.081 84.028 178.019 84.028C176.975 84.028 176.093 83.254 176.093 82.264ZM195.425 76.234V77.962C194.795 76.81 193.625 76.054 192.131 76.054C189.683 76.054 187.865 77.998 187.865 80.5C187.865 83.02 189.683 84.928 192.131 84.928C193.625 84.928 194.795 84.19 195.425 83.092V84.514C195.425 86.26 194.129 87.448 192.383 87.448C191.195 87.448 189.989 86.998 189.287 86.494V88.114C189.917 88.474 191.069 88.87 192.365 88.87C195.083 88.87 196.919 87.178 196.919 84.334V76.234H195.425ZM195.353 80.5C195.353 82.174 194.111 83.47 192.401 83.47C190.727 83.47 189.467 82.174 189.467 80.5C189.467 78.844 190.727 77.548 192.401 77.548C194.111 77.548 195.353 78.844 195.353 80.5ZM199.877 78.142C200.579 77.71 201.389 77.422 202.253 77.422C203.297 77.422 204.287 77.998 204.287 79.402V80.41C203.855 79.87 202.955 79.384 202.001 79.384C200.201 79.384 198.923 80.644 198.923 82.264C198.923 83.848 200.057 85.18 201.983 85.18C202.991 85.18 203.819 84.73 204.287 84.046V85H205.781V79.42C205.781 77.062 204.377 76.054 202.397 76.054C201.425 76.054 200.525 76.342 199.877 76.666V78.142ZM200.417 82.264C200.417 81.31 201.281 80.536 202.343 80.536C203.369 80.536 204.269 81.31 204.269 82.264C204.269 83.254 203.405 84.028 202.343 84.028C201.299 84.028 200.417 83.254 200.417 82.264ZM209.859 72.58H208.365V85H209.859V72.58ZM214.065 72.58H212.571V85H214.065V72.58ZM224.732 81.166C224.768 80.986 224.804 80.626 224.804 80.356C224.804 77.962 223.094 76.054 220.574 76.054C218.072 76.054 216.2 78.052 216.2 80.608C216.2 83.272 218.126 85.18 220.664 85.18C222.014 85.18 223.166 84.748 223.922 84.262V82.714C223.184 83.29 221.978 83.812 220.772 83.812C219.116 83.812 217.892 82.714 217.712 81.166H224.732ZM220.574 77.35C222.104 77.35 223.328 78.394 223.346 79.978H217.712C217.82 78.502 219.008 77.35 220.574 77.35ZM226.986 88.69H228.714L234.06 76.234H232.35L229.776 82.444L227.274 76.234H225.564L228.948 84.334L226.986 88.69ZM239.046 80.608C239.046 83.2 241.044 85.18 243.6 85.18C246.192 85.18 248.154 83.2 248.154 80.608C248.154 78.052 246.192 76.054 243.6 76.054C241.044 76.054 239.046 78.052 239.046 80.608ZM240.594 80.608C240.594 78.898 241.89 77.53 243.6 77.53C245.328 77.53 246.624 78.898 246.624 80.608C246.624 82.336 245.328 83.722 243.6 83.722C241.89 83.722 240.594 82.336 240.594 80.608ZM254.404 76.234H252.208V75.226C252.208 74.38 252.64 73.876 253.504 73.876C253.918 73.876 254.332 73.984 254.512 74.074V72.544C254.296 72.472 253.792 72.4 253.468 72.4C251.776 72.4 250.714 73.39 250.714 75.136V76.234H249.346V77.53H250.714V85H252.208V77.53H254.404V76.234ZM262.204 85V77.53H263.932V76.234H262.204V73.714L260.782 74.092V76.234H259.072V77.53H260.71V85H262.204ZM266.035 88.69H267.763L273.109 76.234H271.399L268.825 82.444L266.323 76.234H264.613L267.997 84.334L266.035 88.69ZM276.223 76.234H274.729V88.69H276.223V83.254C276.853 84.424 278.041 85.18 279.535 85.18C282.055 85.18 283.891 83.2 283.891 80.608C283.891 78.052 282.055 76.054 279.553 76.054C278.041 76.054 276.853 76.828 276.223 78.07V76.234ZM276.223 80.608C276.223 78.916 277.537 77.53 279.283 77.53C281.011 77.53 282.325 78.916 282.325 80.608C282.325 82.336 281.011 83.704 279.283 83.704C277.537 83.704 276.223 82.336 276.223 80.608ZM293.975 81.166C294.011 80.986 294.047 80.626 294.047 80.356C294.047 77.962 292.337 76.054 289.817 76.054C287.315 76.054 285.443 78.052 285.443 80.608C285.443 83.272 287.369 85.18 289.907 85.18C291.257 85.18 292.409 84.748 293.165 84.262V82.714C292.427 83.29 291.221 83.812 290.015 83.812C288.359 83.812 287.135 82.714 286.955 81.166H293.975ZM289.817 77.35C291.347 77.35 292.571 78.394 292.589 79.978H286.955C287.063 78.502 288.251 77.35 289.817 77.35ZM300.658 78.142C301.36 77.71 302.17 77.422 303.034 77.422C304.078 77.422 305.068 77.998 305.068 79.402V80.41C304.636 79.87 303.736 79.384 302.782 79.384C300.982 79.384 299.704 80.644 299.704 82.264C299.704 83.848 300.838 85.18 302.764 85.18C303.772 85.18 304.6 84.73 305.068 84.046V85H306.562V79.42C306.562 77.062 305.158 76.054 303.178 76.054C302.206 76.054 301.306 76.342 300.658 76.666V78.142ZM301.198 82.264C301.198 81.31 302.062 80.536 303.124 80.536C304.15 80.536 305.05 81.31 305.05 82.264C305.05 83.254 304.186 84.028 303.124 84.028C302.08 84.028 301.198 83.254 301.198 82.264ZM310.623 76.234H309.129V85H310.623V79.78C310.677 78.43 311.487 77.53 312.837 77.53C314.205 77.53 315.051 78.502 315.051 79.888V85H316.545V79.528C316.545 77.53 315.267 76.054 313.251 76.054C311.973 76.054 311.109 76.684 310.623 77.62V76.234ZM326.21 85H327.722V72.58H326.21V77.998C325.58 76.828 324.392 76.054 322.916 76.054C320.378 76.054 318.56 78.052 318.56 80.608C318.56 83.2 320.378 85.18 322.916 85.18C324.392 85.18 325.58 84.424 326.21 83.254V85ZM326.21 80.608C326.21 82.336 324.914 83.704 323.168 83.704C321.44 83.704 320.108 82.336 320.108 80.608C320.108 78.916 321.44 77.53 323.168 77.53C324.914 77.53 326.21 78.916 326.21 80.608ZM339.342 76.504C338.838 76.252 338.1 76.054 337.326 76.054C335.4 76.054 334.356 77.098 334.356 78.466C334.356 79.294 334.734 80.032 335.652 80.572L337.272 81.544C337.938 81.94 338.172 82.282 338.172 82.732C338.172 83.398 337.632 83.866 336.642 83.866C335.742 83.866 334.896 83.434 334.446 83.038V84.658C334.986 84.928 335.814 85.18 336.714 85.18C338.568 85.18 339.72 84.226 339.72 82.732C339.72 81.904 339.378 81.148 338.244 80.464L336.696 79.546C336.174 79.222 335.922 78.97 335.922 78.502C335.922 77.872 336.408 77.386 337.344 77.386C338.064 77.386 338.784 77.674 339.342 78.088V76.504ZM348.141 82.948C347.583 83.398 346.755 83.722 345.873 83.722C344.127 83.722 342.813 82.336 342.813 80.608C342.813 78.898 344.127 77.53 345.873 77.53C346.773 77.53 347.565 77.836 348.141 78.304V76.648C347.529 76.288 346.647 76.054 345.873 76.054C343.209 76.054 341.283 78.034 341.283 80.608C341.283 83.2 343.209 85.18 345.873 85.18C346.665 85.18 347.529 84.946 348.141 84.568V82.948ZM351.812 76.234H350.318V85H351.812V79.78C351.866 78.43 352.496 77.53 353.756 77.53C354.152 77.53 354.53 77.62 354.818 77.746V76.144C354.584 76.09 354.314 76.054 354.08 76.054C352.964 76.054 352.226 76.612 351.812 77.422V76.234ZM356.586 78.142C357.288 77.71 358.098 77.422 358.962 77.422C360.006 77.422 360.996 77.998 360.996 79.402V80.41C360.564 79.87 359.664 79.384 358.71 79.384C356.91 79.384 355.632 80.644 355.632 82.264C355.632 83.848 356.766 85.18 358.692 85.18C359.7 85.18 360.528 84.73 360.996 84.046V85H362.49V79.42C362.49 77.062 361.086 76.054 359.106 76.054C358.134 76.054 357.234 76.342 356.586 76.666V78.142ZM357.126 82.264C357.126 81.31 357.99 80.536 359.052 80.536C360.078 80.536 360.978 81.31 360.978 82.264C360.978 83.254 360.114 84.028 359.052 84.028C358.008 84.028 357.126 83.254 357.126 82.264ZM366.551 76.234H365.057V85H366.551V79.564C366.605 78.25 367.415 77.53 368.585 77.53C369.737 77.53 370.565 78.286 370.565 79.69V85H372.059V79.69C372.059 78.304 372.905 77.53 374.075 77.53C375.245 77.53 376.073 78.286 376.073 79.69V85H377.567V79.33C377.567 77.314 376.235 76.054 374.489 76.054C373.139 76.054 372.203 76.756 371.807 77.872C371.339 76.702 370.277 76.054 368.981 76.054C367.847 76.054 367.019 76.594 366.551 77.44V76.234ZM381.637 83.254C382.267 84.424 383.473 85.18 384.967 85.18C387.469 85.18 389.305 83.2 389.305 80.608C389.305 78.052 387.469 76.054 384.967 76.054C383.473 76.054 382.267 76.828 381.637 77.998V72.58H380.143V85H381.637V83.254ZM381.637 80.608C381.637 78.916 382.951 77.53 384.697 77.53C386.425 77.53 387.739 78.916 387.739 80.608C387.739 82.336 386.425 83.704 384.697 83.704C382.951 83.704 381.637 82.336 381.637 80.608ZM392.927 72.58H391.433V85H392.927V72.58ZM403.595 81.166C403.631 80.986 403.667 80.626 403.667 80.356C403.667 77.962 401.957 76.054 399.437 76.054C396.935 76.054 395.063 78.052 395.063 80.608C395.063 83.272 396.989 85.18 399.527 85.18C400.877 85.18 402.029 84.748 402.785 84.262V82.714C402.047 83.29 400.841 83.812 399.635 83.812C397.979 83.812 396.755 82.714 396.575 81.166H403.595ZM399.437 77.35C400.967 77.35 402.191 78.394 402.209 79.978H396.575C396.683 78.502 397.871 77.35 399.437 77.35ZM412.719 85H414.231V72.58H412.719V77.998C412.089 76.828 410.901 76.054 409.425 76.054C406.887 76.054 405.069 78.052 405.069 80.608C405.069 83.2 406.887 85.18 409.425 85.18C410.901 85.18 412.089 84.424 412.719 83.254V85ZM412.719 80.608C412.719 82.336 411.423 83.704 409.677 83.704C407.949 83.704 406.617 82.336 406.617 80.608C406.617 78.916 407.949 77.53 409.677 77.53C411.423 77.53 412.719 78.916 412.719 80.608ZM422.791 76.234H421.297V85H422.791V76.234ZM421.063 73.48C421.063 74.038 421.495 74.452 422.035 74.452C422.629 74.452 423.043 74.038 423.043 73.48C423.043 72.922 422.629 72.49 422.035 72.49C421.495 72.49 421.063 72.922 421.063 73.48ZM427.646 85V77.53H429.374V76.234H427.646V73.714L426.224 74.092V76.234H424.514V77.53H426.152V85H427.646ZM437.287 85V77.53H439.015V76.234H437.287V73.714L435.865 74.092V76.234H434.155V77.53H435.793V85H437.287ZM439.933 80.608C439.933 83.2 441.931 85.18 444.487 85.18C447.079 85.18 449.041 83.2 449.041 80.608C449.041 78.052 447.079 76.054 444.487 76.054C441.931 76.054 439.933 78.052 439.933 80.608ZM441.481 80.608C441.481 78.898 442.777 77.53 444.487 77.53C446.215 77.53 447.511 78.898 447.511 80.608C447.511 82.336 446.215 83.722 444.487 83.722C442.777 83.722 441.481 82.336 441.481 80.608ZM2.736 100.234H1.242V109H2.736V103.564C2.79 102.25 3.6 101.53 4.77 101.53C5.922 101.53 6.75 102.286 6.75 103.69V109H8.244V103.69C8.244 102.304 9.09 101.53 10.26 101.53C11.43 101.53 12.258 102.286 12.258 103.69V109H13.752V103.33C13.752 101.314 12.42 100.054 10.674 100.054C9.324 100.054 8.388 100.756 7.992 101.872C7.524 100.702 6.462 100.054 5.166 100.054C4.032 100.054 3.204 100.594 2.736 101.44V100.234ZM16.5803 102.142C17.2823 101.71 18.0923 101.422 18.9563 101.422C20.0003 101.422 20.9903 101.998 20.9903 103.402V104.41C20.5583 103.87 19.6583 103.384 18.7043 103.384C16.9043 103.384 15.6263 104.644 15.6263 106.264C15.6263 107.848 16.7603 109.18 18.6863 109.18C19.6943 109.18 20.5223 108.73 20.9903 108.046V109H22.4843V103.42C22.4843 101.062 21.0803 100.054 19.1003 100.054C18.1283 100.054 17.2283 100.342 16.5803 100.666V102.142ZM17.1203 106.264C17.1203 105.31 17.9843 104.536 19.0463 104.536C20.0723 104.536 20.9723 105.31 20.9723 106.264C20.9723 107.254 20.1083 108.028 19.0463 108.028C18.0023 108.028 17.1203 107.254 17.1203 106.264ZM25.0512 109H26.5452V106.318L27.8412 104.806L30.1812 109H31.9452L28.9572 103.744L31.8732 100.234H30.0732L26.5452 104.41V96.58H25.0512V109ZM41.2736 105.166C41.3096 104.986 41.3456 104.626 41.3456 104.356C41.3456 101.962 39.6356 100.054 37.1156 100.054C34.6136 100.054 32.7416 102.052 32.7416 104.608C32.7416 107.272 34.6676 109.18 37.2056 109.18C38.5556 109.18 39.7076 108.748 40.4636 108.262V106.714C39.7256 107.29 38.5196 107.812 37.3136 107.812C35.6576 107.812 34.4336 106.714 34.2536 105.166H41.2736ZM37.1156 101.35C38.6456 101.35 39.8696 102.394 39.8876 103.978H34.2536C34.3616 102.502 35.5496 101.35 37.1156 101.35ZM47.9565 102.142C48.6585 101.71 49.4685 101.422 50.3325 101.422C51.3765 101.422 52.3665 101.998 52.3665 103.402V104.41C51.9345 103.87 51.0345 103.384 50.0805 103.384C48.2805 103.384 47.0025 104.644 47.0025 106.264C47.0025 107.848 48.1365 109.18 50.0625 109.18C51.0705 109.18 51.8985 108.73 52.3665 108.046V109H53.8605V103.42C53.8605 101.062 52.4565 100.054 50.4765 100.054C49.5045 100.054 48.6045 100.342 47.9565 100.666V102.142ZM48.4965 106.264C48.4965 105.31 49.3605 104.536 50.4225 104.536C51.4485 104.536 52.3485 105.31 52.3485 106.264C52.3485 107.254 51.4845 108.028 50.4225 108.028C49.3785 108.028 48.4965 107.254 48.4965 106.264ZM62.8464 109V101.53H64.5744V100.234H62.8464V97.714L61.4244 98.092V100.234H59.7144V101.53H61.3524V109H62.8464ZM66.6769 112.69H68.4049L73.7509 100.234H72.0409L69.4669 106.444L66.9649 100.234H65.2549L68.6389 108.334L66.6769 112.69ZM76.8658 100.234H75.3718V112.69H76.8658V107.254C77.4958 108.424 78.6838 109.18 80.1778 109.18C82.6978 109.18 84.5338 107.2 84.5338 104.608C84.5338 102.052 82.6978 100.054 80.1958 100.054C78.6838 100.054 77.4958 100.828 76.8658 102.07V100.234ZM76.8658 104.608C76.8658 102.916 78.1798 101.53 79.9258 101.53C81.6538 101.53 82.9678 102.916 82.9678 104.608C82.9678 106.336 81.6538 107.704 79.9258 107.704C78.1798 107.704 76.8658 106.336 76.8658 104.608ZM94.6176 105.166C94.6536 104.986 94.6896 104.626 94.6896 104.356C94.6896 101.962 92.9796 100.054 90.4596 100.054C87.9576 100.054 86.0856 102.052 86.0856 104.608C86.0856 107.272 88.0116 109.18 90.5496 109.18C91.8996 109.18 93.0516 108.748 93.8076 108.262V106.714C93.0696 107.29 91.8636 107.812 90.6576 107.812C89.0016 107.812 87.7776 106.714 87.5976 105.166H94.6176ZM90.4596 101.35C91.9896 101.35 93.2136 102.394 93.2316 103.978H87.5976C87.7056 102.502 88.8936 101.35 90.4596 101.35ZM105.602 100.504C105.098 100.252 104.36 100.054 103.586 100.054C101.66 100.054 100.616 101.098 100.616 102.466C100.616 103.294 100.994 104.032 101.912 104.572L103.532 105.544C104.198 105.94 104.432 106.282 104.432 106.732C104.432 107.398 103.892 107.866 102.902 107.866C102.002 107.866 101.156 107.434 100.706 107.038V108.658C101.246 108.928 102.074 109.18 102.974 109.18C104.828 109.18 105.98 108.226 105.98 106.732C105.98 105.904 105.638 105.148 104.504 104.464L102.956 103.546C102.434 103.222 102.182 102.97 102.182 102.502C102.182 101.872 102.668 101.386 103.604 101.386C104.324 101.386 105.044 101.674 105.602 102.088V100.504ZM109.596 100.234H108.102V112.69H109.596V107.254C110.226 108.424 111.414 109.18 112.908 109.18C115.428 109.18 117.264 107.2 117.264 104.608C117.264 102.052 115.428 100.054 112.926 100.054C111.414 100.054 110.226 100.828 109.596 102.07V100.234ZM109.596 104.608C109.596 102.916 110.91 101.53 112.656 101.53C114.384 101.53 115.698 102.916 115.698 104.608C115.698 106.336 114.384 107.704 112.656 107.704C110.91 107.704 109.596 106.336 109.596 104.608ZM127.347 105.166C127.383 104.986 127.419 104.626 127.419 104.356C127.419 101.962 125.709 100.054 123.189 100.054C120.687 100.054 118.815 102.052 118.815 104.608C118.815 107.272 120.741 109.18 123.279 109.18C124.629 109.18 125.781 108.748 126.537 108.262V106.714C125.799 107.29 124.593 107.812 123.387 107.812C121.731 107.812 120.507 106.714 120.327 105.166H127.347ZM123.189 101.35C124.719 101.35 125.943 102.394 125.961 103.978H120.327C120.435 102.502 121.623 101.35 123.189 101.35ZM135.679 106.948C135.121 107.398 134.293 107.722 133.411 107.722C131.665 107.722 130.351 106.336 130.351 104.608C130.351 102.898 131.665 101.53 133.411 101.53C134.311 101.53 135.103 101.836 135.679 102.304V100.648C135.067 100.288 134.185 100.054 133.411 100.054C130.747 100.054 128.821 102.034 128.821 104.608C128.821 107.2 130.747 109.18 133.411 109.18C134.203 109.18 135.067 108.946 135.679 108.568V106.948ZM139.35 100.234H137.856V109H139.35V100.234ZM137.622 97.48C137.622 98.038 138.054 98.452 138.594 98.452C139.188 98.452 139.602 98.038 139.602 97.48C139.602 96.922 139.188 96.49 138.594 96.49C138.054 96.49 137.622 96.922 137.622 97.48ZM143.503 100.234H142.009V109H143.503V103.564C143.557 102.25 144.367 101.53 145.537 101.53C146.689 101.53 147.517 102.286 147.517 103.69V109H149.011V103.69C149.011 102.304 149.857 101.53 151.027 101.53C152.197 101.53 153.025 102.286 153.025 103.69V109H154.519V103.33C154.519 101.314 153.187 100.054 151.441 100.054C150.091 100.054 149.155 100.756 148.759 101.872C148.291 100.702 147.229 100.054 145.933 100.054C144.799 100.054 143.971 100.594 143.503 101.44V100.234ZM165.069 105.166C165.105 104.986 165.141 104.626 165.141 104.356C165.141 101.962 163.431 100.054 160.911 100.054C158.409 100.054 156.537 102.052 156.537 104.608C156.537 107.272 158.463 109.18 161.001 109.18C162.351 109.18 163.503 108.748 164.259 108.262V106.714C163.521 107.29 162.315 107.812 161.109 107.812C159.453 107.812 158.229 106.714 158.049 105.166H165.069ZM160.911 101.35C162.441 101.35 163.665 102.394 163.683 103.978H158.049C158.157 102.502 159.345 101.35 160.911 101.35ZM168.595 100.234H167.101V109H168.595V103.78C168.649 102.43 169.459 101.53 170.809 101.53C172.177 101.53 173.023 102.502 173.023 103.888V109H174.517V103.528C174.517 101.53 173.239 100.054 171.223 100.054C169.945 100.054 169.081 100.684 168.595 101.62V100.234ZM182.983 107.254C183.613 108.424 184.819 109.18 186.313 109.18C188.815 109.18 190.651 107.2 190.651 104.608C190.651 102.052 188.815 100.054 186.313 100.054C184.819 100.054 183.613 100.828 182.983 101.998V96.58H181.489V109H182.983V107.254ZM182.983 104.608C182.983 102.916 184.297 101.53 186.043 101.53C187.771 101.53 189.085 102.916 189.085 104.608C189.085 106.336 187.771 107.704 186.043 107.704C184.297 107.704 182.983 106.336 182.983 104.608ZM192.185 104.608C192.185 107.2 194.183 109.18 196.739 109.18C199.331 109.18 201.293 107.2 201.293 104.608C201.293 102.052 199.331 100.054 196.739 100.054C194.183 100.054 192.185 102.052 192.185 104.608ZM193.733 104.608C193.733 102.898 195.029 101.53 196.739 101.53C198.467 101.53 199.763 102.898 199.763 104.608C199.763 106.336 198.467 107.722 196.739 107.722C195.029 107.722 193.733 106.336 193.733 104.608ZM202.824 104.608C202.824 107.2 204.822 109.18 207.378 109.18C209.97 109.18 211.932 107.2 211.932 104.608C211.932 102.052 209.97 100.054 207.378 100.054C204.822 100.054 202.824 102.052 202.824 104.608ZM204.372 104.608C204.372 102.898 205.668 101.53 207.378 101.53C209.106 101.53 210.402 102.898 210.402 104.608C210.402 106.336 209.106 107.722 207.378 107.722C205.668 107.722 204.372 106.336 204.372 104.608ZM214.039 109H215.533V106.318L216.829 104.806L219.169 109H220.933L217.945 103.744L220.861 100.234H219.061L215.533 104.41V96.58H214.039V109ZM222.281 108.046C222.281 108.694 222.767 109.18 223.433 109.18C224.081 109.18 224.585 108.694 224.585 108.046C224.585 107.38 224.081 106.894 223.433 106.894C222.767 106.894 222.281 107.38 222.281 108.046Z" fill="white"/>
</svg>
