<svg width="519" height="170" viewBox="0 0 519 170" fill="none" xmlns="http://www.w3.org/2000/svg">
<path d="M43.64 4.76H1.24L0.12 17.4H0.6C5 8.04 7.88 6.04 15.48 6.04H17.96V52.6C17.96 58.52 17.64 62.52 12.2 62.52V63H32.68V62.52C27.24 62.52 26.92 58.52 26.92 52.6V6.04H29.4C37.08 6.04 39.88 8.04 44.28 17.4H44.76L43.64 4.76ZM58.885 63.96C70.405 63.96 78.725 55.16 78.725 41.88C78.725 28.44 70.725 20.12 59.045 20.12C47.525 20.12 39.205 28.92 39.205 42.2C39.205 55.64 47.205 63.96 58.885 63.96ZM59.045 62.84C51.685 62.84 48.165 53.4 48.165 42.04C48.165 30.2 51.525 21.24 58.885 21.24C66.245 21.24 69.765 30.68 69.765 42.04C69.765 53.88 66.405 62.84 59.045 62.84ZM122.401 20.12C116.961 20.12 112.881 23.32 109.921 27.32V0.439995H109.601L97.5213 3.32V3.8C100.241 4.76 101.601 6.2 101.601 11.32V63.48H102.241L105.761 58.76C108.641 61.8 112.961 63.96 118.161 63.96C129.761 63.96 138.241 54.92 138.241 41.08C138.241 28.6 131.521 20.12 122.401 20.12ZM118.481 62.84C112.881 62.84 109.921 57.72 109.921 50.52V28.6C112.161 26.2 114.961 24.28 118.401 24.28C125.921 24.28 129.281 33 129.281 43.64C129.281 53.64 125.921 62.84 118.481 62.84ZM164.968 20.12C160.728 20.12 157.288 23.8 153.928 28.84V20.28H153.608L141.528 23.8V24.28C144.248 25.24 145.608 26.68 145.608 31.8V54.68C145.608 59.8 145.368 62.52 142.088 62.52V63H157.448V62.52C154.168 62.52 153.928 59.8 153.928 54.68V29.88C156.008 27.24 157.768 26.52 159.368 26.52C161.288 26.52 163.848 27.48 165.768 29.08H166.248L168.168 20.76C167.048 20.28 166.008 20.12 164.968 20.12ZM177.329 14.04C180.209 14.04 182.529 11.72 182.529 8.76C182.529 5.88 180.209 3.56 177.329 3.56C174.369 3.56 172.049 5.88 172.049 8.76C172.049 11.72 174.369 14.04 177.329 14.04ZM170.369 63H185.729V62.52C182.449 62.52 182.209 59.8 182.209 54.68V20.28H181.889L169.809 23.8V24.28C172.529 25.24 173.889 26.68 173.889 31.8V54.68C173.889 59.8 173.649 62.52 170.369 62.52V63ZM225.759 54.68V32.6C225.759 24.6 221.919 20.12 215.519 20.12C210.239 20.12 205.119 23.72 200.959 27.96V20.28H200.639L188.559 23.8V24.28C191.279 25.24 192.639 26.68 192.639 31.8V54.68C192.639 59.8 192.399 62.52 189.119 62.52V63H204.479V62.52C201.199 62.52 200.959 59.8 200.959 54.68V28.68C203.999 26.52 207.519 25.24 210.479 25.24C216.159 25.24 217.439 29.4 217.439 35V54.68C217.439 59.8 217.199 62.52 213.919 62.52V63H229.279V62.52C225.999 62.52 225.759 59.8 225.759 54.68ZM257.203 53.96H242.243C240.003 53.96 239.123 53 239.123 51.72C239.123 50.36 239.843 49.32 242.322 47.56C244.243 48.2 246.323 48.52 248.643 48.52C257.923 48.52 264.243 42.84 264.243 34.2C264.243 29.96 262.723 26.52 260.163 24.04L269.123 24.84L270.562 20.44L257.603 22.2C255.203 20.84 252.163 20.12 248.803 20.12C239.603 20.12 233.123 25.8 233.123 34.44C233.123 40.6 236.323 45.08 241.443 47.16C236.483 49.96 233.603 52.12 233.603 55.64C233.603 58.76 235.683 61.32 240.323 61.32H256.243C262.163 61.32 265.443 64.12 265.443 68.6C265.443 75.16 259.683 79.16 252.003 79.16C243.843 79.16 238.883 74.92 238.883 68.6C238.883 66.12 239.363 64.04 241.043 62.2H240.723L239.523 62.68C235.203 64.44 232.163 67 232.163 71.32C232.163 77.32 237.443 82.2 247.203 82.2C258.243 82.2 270.562 75.32 270.562 64.44C270.562 57.4 266.003 53.96 257.203 53.96ZM248.723 21.24C254.163 21.24 256.403 26.84 256.403 34.28C256.403 41.72 254.163 47.4 248.723 47.4C243.203 47.4 240.963 41.72 240.963 34.28C240.963 26.84 243.283 21.24 248.723 21.24ZM279.361 14.04C282.241 14.04 284.561 11.72 284.561 8.76C284.561 5.88 282.241 3.56 279.361 3.56C276.401 3.56 274.081 5.88 274.081 8.76C274.081 11.72 276.401 14.04 279.361 14.04ZM272.401 63H287.761V62.52C284.481 62.52 284.241 59.8 284.241 54.68V20.28H283.921L271.841 23.8V24.28C274.561 25.24 275.921 26.68 275.921 31.8V54.68C275.921 59.8 275.681 62.52 272.401 62.52V63ZM327.791 54.68V32.6C327.791 24.6 323.951 20.12 317.551 20.12C312.271 20.12 307.151 23.72 302.991 27.96V20.28H302.671L290.591 23.8V24.28C293.311 25.24 294.671 26.68 294.671 31.8V54.68C294.671 59.8 294.431 62.52 291.151 62.52V63H306.511V62.52C303.231 62.52 302.991 59.8 302.991 54.68V28.68C306.031 26.52 309.551 25.24 312.511 25.24C318.191 25.24 319.471 29.4 319.471 35V54.68C319.471 59.8 319.231 62.52 315.951 62.52V63H331.311V62.52C328.031 62.52 327.791 59.8 327.791 54.68ZM359.234 53.96H344.274C342.034 53.96 341.154 53 341.154 51.72C341.154 50.36 341.874 49.32 344.354 47.56C346.274 48.2 348.354 48.52 350.674 48.52C359.954 48.52 366.274 42.84 366.274 34.2C366.274 29.96 364.754 26.52 362.194 24.04L371.154 24.84L372.594 20.44L359.634 22.2C357.234 20.84 354.194 20.12 350.834 20.12C341.634 20.12 335.154 25.8 335.154 34.44C335.154 40.6 338.354 45.08 343.474 47.16C338.514 49.96 335.634 52.12 335.634 55.64C335.634 58.76 337.714 61.32 342.354 61.32H358.274C364.194 61.32 367.474 64.12 367.474 68.6C367.474 75.16 361.714 79.16 354.034 79.16C345.874 79.16 340.914 74.92 340.914 68.6C340.914 66.12 341.394 64.04 343.074 62.2H342.754L341.554 62.68C337.234 64.44 334.194 67 334.194 71.32C334.194 77.32 339.474 82.2 349.234 82.2C360.274 82.2 372.594 75.32 372.594 64.44C372.594 57.4 368.034 53.96 359.234 53.96ZM350.754 21.24C356.194 21.24 358.434 26.84 358.434 34.28C358.434 41.72 356.194 47.4 350.754 47.4C345.234 47.4 342.994 41.72 342.994 34.28C342.994 26.84 345.314 21.24 350.754 21.24ZM24.92 107.12C19.48 107.12 15.4 110.32 12.44 114.32V107.28H12.12L0.04 110.8V111.28C2.76 112.24 4.12 113.68 4.12 118.8V159.92C4.12 165.04 3.88 167.76 0.6 167.76V168.24H15.96V167.76C12.68 167.76 12.44 165.04 12.44 159.92V148.96C14.76 150.16 17.56 150.96 20.68 150.96C32.28 150.96 40.76 141.92 40.76 128.08C40.76 115.6 34.04 107.12 24.92 107.12ZM21 149.84C15.4 149.84 12.44 144.72 12.44 137.52V115.6C14.68 113.2 17.48 111.28 20.92 111.28C28.44 111.28 31.8 120 31.8 130.64C31.8 140.64 28.44 149.84 21 149.84ZM78.5881 139.84C76.0281 143.52 71.7081 146.32 66.5081 146.32C57.6281 146.32 53.5481 137.68 53.5481 125.92C53.5481 125.12 53.5481 124.24 53.6281 123.44H78.9881C79.4681 113.28 73.2281 107.12 64.3481 107.12C53.3881 107.12 44.9081 116.72 44.9081 129.68C44.9081 141.44 51.3081 150.96 62.5081 150.96C71.1481 150.96 76.1081 145.36 79.0681 140.16L78.5881 139.84ZM63.9481 108.24C69.6281 108.24 71.5481 113.68 70.9081 122.16H53.7881C54.5881 114.72 57.9481 108.24 63.9481 108.24ZM102.244 150.96C113.764 150.96 122.084 142.16 122.084 128.88C122.084 115.44 114.084 107.12 102.404 107.12C90.8844 107.12 82.5644 115.92 82.5644 129.2C82.5644 142.64 90.5644 150.96 102.244 150.96ZM102.404 149.84C95.0444 149.84 91.5244 140.4 91.5244 129.04C91.5244 117.2 94.8844 108.24 102.244 108.24C109.604 108.24 113.124 117.68 113.124 129.04C113.124 140.88 109.764 149.84 102.404 149.84ZM150.076 107.12C144.636 107.12 140.556 110.32 137.596 114.32V107.28H137.276L125.196 110.8V111.28C127.916 112.24 129.276 113.68 129.276 118.8V159.92C129.276 165.04 129.036 167.76 125.756 167.76V168.24H141.116V167.76C137.836 167.76 137.596 165.04 137.596 159.92V148.96C139.916 150.16 142.716 150.96 145.836 150.96C157.436 150.96 165.916 141.92 165.916 128.08C165.916 115.6 159.196 107.12 150.076 107.12ZM146.156 149.84C140.556 149.84 137.596 144.72 137.596 137.52V115.6C139.836 113.2 142.636 111.28 146.076 111.28C153.596 111.28 156.956 120 156.956 130.64C156.956 140.64 153.596 149.84 146.156 149.84ZM169.584 150H184.944V149.52C181.664 149.52 181.424 146.8 181.424 141.68V87.44H181.104L169.024 90.32V90.8C171.744 91.76 173.104 93.2 173.104 98.32V141.68C173.104 146.8 172.864 149.52 169.584 149.52V150ZM222.338 139.84C219.778 143.52 215.458 146.32 210.258 146.32C201.378 146.32 197.298 137.68 197.298 125.92C197.298 125.12 197.298 124.24 197.378 123.44H222.738C223.218 113.28 216.978 107.12 208.098 107.12C197.138 107.12 188.658 116.72 188.658 129.68C188.658 141.44 195.058 150.96 206.258 150.96C214.898 150.96 219.858 145.36 222.818 140.16L222.338 139.84ZM207.698 108.24C213.378 108.24 215.298 113.68 214.658 122.16H197.538C198.338 114.72 201.698 108.24 207.698 108.24ZM258.399 111.2H269.919L271.839 108.08H259.119L261.439 97.04H260.959C256.079 104.88 251.759 107.84 247.359 109.84L246.159 110.32L245.919 111.2H250.159L243.919 140.32C242.559 146.88 244.159 150.96 248.799 150.96C254.639 150.96 260.959 144.56 265.679 135.92L265.279 135.6C260.079 142.56 256.079 145.44 253.839 145.44C251.599 145.44 251.759 142.56 252.319 139.92L258.399 111.2ZM283.386 150.96C295.946 150.96 305.466 137.68 305.466 123.92C305.466 113.6 299.386 107.12 290.266 107.12C277.466 107.12 268.106 120.96 268.106 134.24C268.106 144.56 274.266 150.96 283.386 150.96ZM282.986 149.84C278.346 149.84 276.426 145.12 276.426 138.48C276.426 127.04 281.786 108.24 290.666 108.24C295.306 108.24 297.226 112.88 297.226 119.6C297.226 131.04 291.866 149.84 282.986 149.84ZM348.489 107.44L335.689 109.2C333.529 107.84 330.729 107.12 327.529 107.12C317.929 107.12 310.729 114.64 310.729 123.76C310.729 130 314.569 134.24 320.729 135.28C316.009 136.4 311.769 138.4 311.769 142.48C311.769 145.68 314.409 147.2 316.889 147.92L326.889 150.64C331.769 151.92 336.489 153.36 336.489 157.68C336.489 162.72 329.929 166.4 321.689 166.4C313.289 166.4 309.529 162.72 309.529 158.08C309.529 154.72 311.529 151.28 316.009 148.8L315.689 148.72L314.409 148.96C307.609 150.64 303.289 154.96 303.289 160.24C303.289 165.28 307.129 169.2 316.409 169.2C329.369 169.2 342.009 162.24 342.009 153.28C342.009 147.36 335.689 145.2 329.129 143.44L320.729 141.12C319.209 140.72 318.329 140.08 318.329 138.96C318.329 137.36 319.769 136.64 323.929 135.52C333.449 135.44 340.649 127.92 340.649 118.8C340.649 115.68 339.609 113.04 337.849 111.04L346.409 111.84L348.489 107.44ZM323.289 134.4C319.689 134.4 318.009 131.52 318.009 127.04C318.009 119.76 321.769 108.24 328.169 108.24C331.689 108.24 333.369 111.04 333.369 115.52C333.369 122.8 329.609 134.4 323.289 134.4ZM379.451 113.6C379.451 109.68 376.331 107.12 369.931 107.12C353.291 107.12 344.811 125.2 344.811 137.44C344.811 146.64 349.611 151.04 356.491 151.04C362.891 151.04 369.051 147.12 374.971 137.76L374.491 137.44C370.091 142.8 365.051 146.32 360.411 146.32C356.091 146.32 353.451 143.04 353.451 135.6C353.451 133.52 353.691 131.44 354.011 129.44C369.611 124.88 379.451 120.88 379.451 113.6ZM368.651 108.32C371.371 108.32 372.251 110.32 372.251 112.88C372.251 119.2 366.571 123.68 354.251 128.08C356.571 117.6 362.971 108.32 368.651 108.32ZM395.977 111.2H407.497L409.417 108.08H396.697L399.017 97.04H398.537C393.657 104.88 389.337 107.84 384.937 109.84L383.737 110.32L383.497 111.2H387.737L381.497 140.32C380.137 146.88 381.737 150.96 386.377 150.96C392.217 150.96 398.537 144.56 403.257 135.92L402.857 135.6C397.657 142.56 393.657 145.44 391.417 145.44C389.177 145.44 389.337 142.56 389.897 139.92L395.977 111.2ZM446.151 138.16C442.631 142.96 440.071 145.04 438.951 145.04C437.671 145.04 438.151 142.88 438.551 141.2L442.951 122.16C444.871 113.84 444.871 107.12 438.391 107.12C429.991 107.12 421.991 118.4 416.391 133.6L426.151 87.44H425.831L413.271 89.84L413.111 90.32C415.831 91.04 416.631 92.8 415.591 97.84L404.631 150H412.951C417.111 130.16 427.271 112.72 433.271 112.72C436.471 112.72 435.671 117.12 434.631 121.52L430.071 141.76C428.951 146.56 429.031 150.96 433.591 150.96C437.911 150.96 442.471 146.32 446.551 138.48L446.151 138.16ZM483.279 113.6C483.279 109.68 480.159 107.12 473.759 107.12C457.119 107.12 448.639 125.2 448.639 137.44C448.639 146.64 453.439 151.04 460.319 151.04C466.719 151.04 472.879 147.12 478.799 137.76L478.319 137.44C473.919 142.8 468.879 146.32 464.239 146.32C459.919 146.32 457.279 143.04 457.279 135.6C457.279 133.52 457.519 131.44 457.839 129.44C473.439 124.88 483.279 120.88 483.279 113.6ZM472.479 108.32C475.199 108.32 476.079 110.32 476.079 112.88C476.079 119.2 470.399 123.68 458.079 128.08C460.399 117.6 466.799 108.32 472.479 108.32ZM513.405 107.12C506.205 107.12 500.605 117.44 496.525 130.08L499.485 116.32C500.445 111.6 500.605 107.12 496.125 107.12C492.205 107.12 487.885 111.2 484.445 118L484.845 118.32C487.565 114.96 489.485 113.04 490.525 113.04C491.805 113.04 491.405 115.04 491.005 116.88L484.045 150H492.285C496.125 132.08 501.805 115.36 510.045 115.36C511.005 115.36 511.805 115.52 512.765 116H513.245L516.845 107.76C515.725 107.2 514.525 107.12 513.405 107.12ZM513.406 150.96C516.286 150.96 518.686 148.56 518.686 145.68C518.686 142.8 516.286 140.4 513.406 140.4C510.526 140.4 508.126 142.8 508.126 145.68C508.126 148.56 510.526 150.96 513.406 150.96Z" fill="white"/>
</svg>
